<svg width="24" height="24" viewBox="0 0 24 24" fill="none" xmlns="http://www.w3.org/2000/svg">
<path d="M3.93982 17.0859C2.90144 17.0865 2.05769 16.2416 2.0575 15.2034L2.05713 9.43987C2.05675 8.40262 2.90032 7.55793 3.93738 7.55774C4.44157 7.55736 4.91369 7.75293 5.26957 8.10843C5.62544 8.46393 5.82119 8.9368 5.82157 9.43949L5.821 15.2032C5.82235 15.4503 5.77444 15.6952 5.68008 15.9236C5.58573 16.152 5.44681 16.3593 5.27144 16.5334C5.09717 16.7091 4.8897 16.8485 4.6611 16.9433C4.4325 17.0382 4.18732 17.0867 3.93982 17.0859ZM3.93832 8.06343C3.17838 8.06305 2.56244 8.68049 2.56225 9.43987L2.56319 15.2029C2.56314 15.5681 2.7081 15.9183 2.96621 16.1767C3.22431 16.435 3.57444 16.5803 3.93963 16.5806C4.12046 16.5806 4.2995 16.5449 4.46654 16.4757C4.63358 16.4064 4.78533 16.3049 4.91313 16.177C5.04092 16.0491 5.14225 15.8972 5.21133 15.7301C5.2804 15.563 5.31586 15.3839 5.31569 15.2031V9.43911C5.31529 9.07409 5.17 8.72415 4.91173 8.4662C4.65346 8.20825 4.30334 8.06338 3.93832 8.06343Z" fill="white"/>
<path d="M18.7016 8.34885L18.1957 8.34866L5.79843 8.35035L5.29237 8.35053L5.29199 7.84447C5.29087 5.76697 6.42262 3.83478 8.27643 2.69328L7.55568 1.3776C7.46756 1.22347 7.44543 1.02828 7.49681 0.849783C7.52283 0.760748 7.5663 0.677778 7.62469 0.605705C7.68308 0.533631 7.75523 0.473894 7.83693 0.42997C7.93791 0.374325 8.05145 0.34547 8.16674 0.346158C8.42212 0.346158 8.65593 0.48472 8.77931 0.708595L9.53362 2.08278C10.3203 1.79469 11.1519 1.64836 11.9897 1.6506C12.8533 1.65022 13.6815 1.79628 14.4654 2.08391L15.2186 0.70747C15.2786 0.597643 15.3671 0.506026 15.4747 0.442273C15.5824 0.37852 15.7053 0.344991 15.8304 0.34522C15.9456 0.344763 16.0591 0.372986 16.1606 0.427345C16.2425 0.471218 16.3147 0.531083 16.373 0.60339C16.4313 0.675697 16.4745 0.758974 16.5 0.848283C16.5256 0.936339 16.5336 1.02861 16.5234 1.11975C16.5131 1.2109 16.4849 1.29911 16.4404 1.37928L15.72 2.69422C17.5708 3.83816 18.7012 5.76885 18.7011 7.84278L18.7016 8.34885ZM15.0367 2.8881L15.9973 1.13403C16.011 1.112 16.0201 1.0874 16.024 1.06174C16.0279 1.03608 16.0265 1.00989 16.02 0.984777C16.0134 0.959665 16.0018 0.936152 15.9858 0.915674C15.9699 0.895196 15.9499 0.878182 15.9272 0.86567C15.9045 0.853159 15.8794 0.845411 15.8536 0.842901C15.8277 0.840392 15.8017 0.843172 15.7769 0.851072C15.7522 0.858972 15.7294 0.871827 15.7098 0.888852C15.6902 0.905877 15.6743 0.926715 15.663 0.950095L14.6925 2.72197C13.8761 2.35935 12.9621 2.15553 11.9959 2.15647C11.0317 2.15553 10.1194 2.3586 9.30543 2.71991L8.33399 0.95197C8.32212 0.929893 8.30598 0.910394 8.28651 0.894602C8.26704 0.878811 8.24463 0.867042 8.22058 0.859978C8.19653 0.852914 8.17131 0.850696 8.14639 0.853452C8.12148 0.856208 8.09736 0.863883 8.07543 0.876033C7.98224 0.925908 7.94793 1.0431 7.99987 1.1346L8.96081 2.88735C7.07268 3.86122 5.79693 5.7156 5.79806 7.84466L18.1952 7.84316C18.1957 5.71485 16.9222 3.86422 15.0367 2.8881ZM9.17624 5.59878C9.03837 5.59871 8.90618 5.54387 8.80874 5.44633C8.7113 5.34878 8.65661 5.21653 8.65668 5.07866C8.65675 4.94079 8.7116 4.80859 8.80914 4.71115C8.90668 4.61372 9.03893 4.55902 9.17681 4.5591C9.31469 4.55934 9.44686 4.61422 9.54438 4.7117C9.6419 4.80918 9.69682 4.94133 9.69712 5.07922C9.69692 5.21718 9.64194 5.34942 9.54426 5.44685C9.44658 5.54428 9.31421 5.59893 9.17624 5.59878ZM14.8213 5.59766C14.753 5.59778 14.6854 5.58443 14.6223 5.55836C14.5592 5.5323 14.5019 5.49404 14.4536 5.44577C14.4053 5.3975 14.367 5.34018 14.3409 5.27708C14.3148 5.21399 14.3015 5.14637 14.3016 5.0781C14.3021 4.94029 14.3571 4.80829 14.4544 4.71076C14.5518 4.61323 14.6837 4.55806 14.8215 4.55722C14.9591 4.55835 15.0908 4.61369 15.1879 4.71122C15.285 4.80876 15.3398 4.94064 15.3403 5.07828C15.3403 5.21596 15.2856 5.34801 15.1883 5.4454C15.091 5.54279 14.959 5.59756 14.8213 5.59766ZM9.69581 23.6548C8.65837 23.6547 7.81406 22.8109 7.81387 21.7727L7.81349 19.2289L7.31887 19.2295C7.05943 19.2304 6.80239 19.1798 6.56266 19.0806C6.32293 18.9814 6.10529 18.8356 5.92237 18.6516C5.73818 18.4687 5.59222 18.2509 5.49297 18.011C5.39373 17.7712 5.3432 17.5139 5.34431 17.2543L5.34243 8.32428V7.81785H5.84849L18.1528 7.81597L18.6591 7.8156V8.32166L18.6604 17.2528C18.6606 18.342 17.7744 19.2283 16.6856 19.2282L16.188 19.2285L16.1886 21.7714C16.1886 22.809 15.3444 23.6537 14.3074 23.6537C14.0601 23.6549 13.815 23.6068 13.5865 23.5123C13.358 23.4177 13.1506 23.2786 12.9765 23.103C12.8008 22.929 12.6615 22.7217 12.5666 22.4933C12.4717 22.2649 12.4232 22.0199 12.4239 21.7725V19.2285H11.5781V21.772C11.5777 22.8098 10.7338 23.655 9.69581 23.6548Z" fill="white"/>
<path d="M5.85088 17.2541C5.85046 17.4471 5.88815 17.6383 5.96177 17.8167C6.0354 17.9951 6.14352 18.1572 6.27994 18.2937C6.41635 18.4302 6.57837 18.5385 6.75671 18.6122C6.93505 18.686 7.1262 18.7238 7.3192 18.7235H8.31913L8.32026 21.773C8.32007 22.5324 8.93694 23.1495 9.69557 23.1497C9.8764 23.1496 10.0554 23.1139 10.2225 23.0447C10.3895 22.9754 10.5412 22.8739 10.669 22.7459C10.7968 22.618 10.8981 22.4661 10.9672 22.299C11.0362 22.1318 11.0716 21.9527 11.0714 21.7719L11.0716 18.7234L12.9296 18.7228L12.9294 21.7721C12.9301 22.5317 13.5478 23.1495 14.3062 23.148C15.0667 23.1485 15.6832 22.5307 15.683 21.771L15.6821 18.7224L16.6858 18.7222C17.4956 18.7224 18.1543 18.0645 18.1543 17.2528L18.1526 8.32123L5.84863 8.32348L5.85088 17.2541ZM20.0617 17.0835C19.0237 17.0837 18.1794 16.2401 18.1796 15.2017L18.1781 9.43835C18.1784 8.40016 19.0214 7.55566 20.0589 7.55566C21.0976 7.55548 21.9425 8.39979 21.9423 9.43779L21.9429 15.2008C21.9431 16.2384 21.0995 17.0837 20.0617 17.0835ZM20.0598 8.06173C19.2999 8.06098 18.6841 8.67804 18.6841 9.43835L18.6847 15.2015C18.6846 15.3823 18.7201 15.5614 18.7893 15.7284C18.8584 15.8955 18.9598 16.0472 19.0877 16.175C19.2156 16.3029 19.3674 16.4042 19.5344 16.4733C19.7015 16.5424 19.8805 16.5779 20.0613 16.5778C20.2421 16.5777 20.421 16.5421 20.588 16.4729C20.755 16.4036 20.9067 16.3022 21.0344 16.1744C21.1622 16.0465 21.2635 15.8947 21.3326 15.7277C21.4017 15.5607 21.4373 15.3817 21.4372 15.201L21.4357 9.43798C21.4358 9.25724 21.4003 9.07825 21.3312 8.91125C21.2621 8.74424 21.1608 8.59249 21.033 8.46468C20.9052 8.33686 20.7535 8.23549 20.5865 8.16634C20.4195 8.0972 20.2406 8.06165 20.0598 8.06173Z" fill="white"/>
<path d="M3.93807 8.06348C3.17814 8.06311 2.5622 8.68054 2.56201 9.43992L2.56295 15.2029C2.56288 15.3837 2.59843 15.5628 2.66758 15.7298C2.73674 15.8969 2.83813 16.0487 2.96598 16.1766C3.09382 16.3044 3.24561 16.4058 3.41266 16.475C3.57972 16.5442 3.75876 16.5798 3.93957 16.5797C4.12038 16.5799 4.29944 16.5444 4.46651 16.4753C4.63357 16.4062 4.78536 16.3048 4.91317 16.1769C5.04098 16.049 5.1423 15.8972 5.21133 15.7301C5.28036 15.563 5.31575 15.3839 5.31545 15.2031V9.43917C5.31505 9.07414 5.16975 8.72421 4.91148 8.46625C4.65321 8.2083 4.3031 8.06343 3.93807 8.06348ZM15.0366 2.8881L15.9971 1.13404C16.0216 1.08954 16.0274 1.03716 16.0133 0.988375C15.9992 0.939589 15.9664 0.898383 15.9219 0.873792C15.8775 0.849614 15.8252 0.844071 15.7766 0.858377C15.728 0.872683 15.6871 0.90567 15.6628 0.950104L14.6925 2.72254C13.8761 2.35917 12.9624 2.15554 11.9957 2.15648C11.0316 2.15554 10.1183 2.3586 9.30526 2.71992L8.33382 0.951979C8.32197 0.929911 8.30585 0.910415 8.2864 0.894621C8.26695 0.878827 8.24456 0.867049 8.22053 0.859969C8.1965 0.852888 8.1713 0.850647 8.1464 0.853373C8.12149 0.8561 8.09738 0.863741 8.07545 0.875854C8.05331 0.887688 8.03375 0.903819 8.01792 0.923302C8.00209 0.942786 7.9903 0.965231 7.98325 0.989324C7.97619 1.01342 7.97401 1.03868 7.97684 1.06362C7.97966 1.08857 7.98744 1.1127 7.9997 1.1346L8.96064 2.88754C7.07251 3.86123 5.79676 5.7156 5.79789 7.84467L18.195 7.84317C18.1956 5.71486 16.9221 3.86423 15.0366 2.8881ZM9.17607 5.59879C9.0382 5.59872 8.90601 5.54388 8.80857 5.44633C8.71113 5.34879 8.65644 5.21654 8.65651 5.07867C8.65659 4.9408 8.71143 4.8086 8.80897 4.71116C8.90651 4.61373 9.03877 4.55903 9.17664 4.5591C9.31452 4.55935 9.44669 4.61422 9.54421 4.71171C9.64173 4.80919 9.69665 4.94134 9.69695 5.07923C9.69675 5.21719 9.64177 5.34943 9.54409 5.44686C9.44641 5.54429 9.31404 5.59894 9.17607 5.59879ZM14.8211 5.59767C14.7529 5.59772 14.6853 5.58431 14.6222 5.55822C14.5592 5.53213 14.5018 5.49387 14.4536 5.44561C14.4053 5.39736 14.367 5.34006 14.3409 5.27701C14.3148 5.21395 14.3014 5.14636 14.3014 5.0781C14.3021 4.94035 14.3571 4.80843 14.4544 4.71093C14.5518 4.61344 14.6836 4.55821 14.8213 4.55723C14.959 4.55836 15.0906 4.6137 15.1877 4.71123C15.2848 4.80877 15.3396 4.94065 15.3401 5.07829C15.3402 5.14649 15.3268 5.21403 15.3008 5.27705C15.2747 5.34007 15.2365 5.39734 15.1883 5.44558C15.1401 5.49382 15.0829 5.53208 15.0199 5.55818C14.9569 5.58427 14.8893 5.59769 14.8211 5.59767ZM5.84851 8.32354L5.85057 17.2551C5.8503 17.448 5.8881 17.6391 5.96181 17.8174C6.03551 17.9956 6.14367 18.1576 6.28009 18.294C6.41651 18.4304 6.57851 18.5386 6.7568 18.6123C6.93508 18.6859 7.12616 18.7237 7.31907 18.7234L8.31901 18.7238L8.32014 21.7733C8.31995 22.5327 8.9372 23.1499 9.69545 23.1499C10.4559 23.1499 11.0721 22.5321 11.0723 21.7724L11.0715 18.7236L12.9294 18.723L12.9302 21.7724C12.9302 22.5312 13.5476 23.1497 14.3061 23.1482C15.0666 23.1488 15.6831 22.531 15.6829 21.7712L15.6819 18.7227L16.6854 18.7219C16.8784 18.7219 17.0694 18.684 17.2477 18.6102C17.4259 18.5364 17.5879 18.4282 17.7243 18.2918C17.8607 18.1554 17.969 17.9934 18.0428 17.8152C18.1167 17.637 18.1547 17.446 18.1547 17.253L18.153 8.32148L5.84851 8.32354ZM21.4361 9.43785C21.4361 9.25712 21.4005 9.07817 21.3313 8.9112C21.2621 8.74424 21.1607 8.59253 21.0329 8.46475C20.9051 8.33698 20.7534 8.23562 20.5864 8.16648C20.4194 8.09734 20.2404 8.06177 20.0597 8.06179C19.2998 8.06104 18.684 8.6781 18.684 9.43842L18.6851 15.2018C18.685 15.3825 18.7205 15.5615 18.7896 15.7285C18.8587 15.8955 18.9601 16.0473 19.0879 16.1751C19.2157 16.3029 19.3674 16.4042 19.5345 16.4734C19.7015 16.5425 19.8805 16.578 20.0612 16.5779C20.242 16.5779 20.421 16.5423 20.588 16.4731C20.755 16.4039 20.9067 16.3025 21.0345 16.1746C21.1623 16.0467 21.2636 15.8949 21.3327 15.7279C21.4017 15.5608 21.4372 15.3818 21.4371 15.201L21.4361 9.43785Z" fill="#A4C439"/>
</svg>
