<svg width="32" height="32" viewBox="0 0 32 32" fill="none" xmlns="http://www.w3.org/2000/svg">
<path d="M17.8001 8.591C19.8791 13.175 25.4401 15.091 24.9411 21.065C24.3591 28.082 19.3901 29.849 16.6251 29.974C14.4022 30.1465 12.1964 29.4702 10.4522 28.0813C8.70797 26.6924 7.55486 24.6941 7.22513 22.489C5.61813 15.046 12.6551 3.632 16.7091 2C16.5756 4.25093 16.9484 6.50317 17.8001 8.591ZM17.6341 27.448C17.6472 27.3925 17.6488 27.3349 17.639 27.2787C17.6293 27.2225 17.6082 27.1688 17.5771 27.121C16.9841 26.021 11.7671 25.476 10.6701 25.369C11.158 25.8697 11.7074 26.3065 12.3051 26.669C13.1665 27.1956 14.1224 27.5492 15.1191 27.71C15.9221 27.831 17.4671 27.933 17.6351 27.447L17.6341 27.448Z" fill="#7C648F"/>
<path opacity="0.25" d="M18.2479 10.618C22.7179 15.441 24.6929 15.597 24.4849 21.096C24.2359 27.572 19.9419 29.287 17.4269 29.516C13.2269 30.067 9.93188 27.988 9.06888 23.83C7.31188 17.063 12.9779 6.02299 16.6369 4.35999C16.7286 6.53141 17.2811 8.65848 18.2579 10.6L18.2479 10.618Z" fill="#26003D"/>
<path opacity="0.75" d="M17.3851 9.92095C20.3691 14 24.3191 13.7 25.0001 19.641C25.0941 26.564 21.4001 28.924 18.7631 29.589C14.2631 30.868 10.2491 28.944 8.66912 24.589C5.63412 17.589 11.3201 6.07495 14.9791 3.67395C15.2936 5.90381 16.1034 8.03494 17.3491 9.91095L17.3851 9.92095Z" fill="url(#paint0_linear_804_144)"/>
<defs>
<linearGradient id="paint0_linear_804_144" x1="17.2491" y1="29.597" x2="14.9731" y2="3.99395" gradientUnits="userSpaceOnUse">
<stop stop-color="white" stop-opacity="0"/>
<stop offset="0.01" stop-color="#F7F6F8" stop-opacity="0.04"/>
<stop offset="0.09" stop-color="#AA9CB3" stop-opacity="0.39"/>
<stop offset="0.2" stop-color="#6F567E" stop-opacity="0.66"/>
<stop offset="0.32" stop-color="#452459" stop-opacity="0.86"/>
<stop offset="0.5" stop-color="#2D0843" stop-opacity="0.97"/>
<stop offset="1" stop-color="#26003D"/>
</linearGradient>
</defs>
</svg>
