<svg width="24" height="24" viewBox="0 0 24 24" fill="none" xmlns="http://www.w3.org/2000/svg">
<path d="M1.5 1.5H22.5V22.5H1.5V1.5Z" fill="#F5DE19"/>
<path d="M15.6066 17.9063C15.7855 18.2697 16.0635 18.5752 16.4085 18.7875C16.7535 18.9999 17.1515 19.1104 17.5566 19.1063C18.3741 19.1063 18.8968 18.6975 18.8968 18.1313C18.8968 17.4563 18.3598 17.2148 17.4598 16.821L16.9663 16.6095C15.5413 16.0028 14.5963 15.243 14.5963 13.6365C14.5963 12.1568 15.7213 11.0295 17.4861 11.0295C18.0573 10.9883 18.6281 11.1162 19.1272 11.3972C19.6263 11.6782 20.0316 12.0999 20.2926 12.6098L18.7498 13.596C18.6493 13.3432 18.4744 13.1269 18.2481 12.9759C18.0219 12.8248 17.7551 12.746 17.4831 12.75C17.3644 12.7382 17.2445 12.7511 17.1311 12.7881C17.0177 12.8251 16.9133 12.8853 16.8245 12.9649C16.7356 13.0445 16.6644 13.1418 16.6152 13.2504C16.566 13.3591 16.54 13.4768 16.5388 13.596C16.5388 14.1878 16.9056 14.4278 17.7523 14.7961L18.2458 15.0075C19.9228 15.7268 20.8708 16.4595 20.8708 18.1073C20.8708 19.884 19.4751 20.8575 17.6008 20.8575C16.8705 20.9041 16.1424 20.7383 15.5043 20.3802C14.8661 20.022 14.3453 19.4869 14.0046 18.8393L15.6066 17.9063ZM8.63531 18.0773C8.94506 18.627 9.22706 19.092 9.90506 19.092C10.5531 19.092 10.9626 18.8385 10.9626 17.8523V11.142H12.9358V17.8785C12.9358 19.9215 11.7358 20.8515 9.98906 20.8515C9.37162 20.8853 8.75842 20.7314 8.23007 20.4102C7.70172 20.0889 7.28295 19.6153 7.02881 19.0515L8.63531 18.0773Z" fill="black"/>
</svg>
