<svg width="26" height="24" viewBox="0 0 26 24" fill="none" xmlns="http://www.w3.org/2000/svg">
<g clip-path="url(#clip0_804_278)">
<path d="M7.73449 15.8371L8.52465 19.3089C8.70218 20.0972 8.77622 20.6475 8.74656 20.9612C9.17871 19.3938 9.48066 17.6857 9.65245 15.8371H10.6026C10.194 18.8468 9.65519 21.0339 8.98635 22.3982C8.46523 23.4496 7.89435 23.9753 7.27269 23.9753C7.10694 23.9753 6.90259 23.9075 6.66011 23.7728V23.0473C6.77859 23.0708 6.91757 23.0834 7.07743 23.0834C7.36745 23.0834 7.60119 22.9746 7.77903 22.7573C7.99195 22.4926 8.09854 22.1951 8.09854 21.8654C8.09854 21.6402 8.01541 21.1782 7.84992 20.4792L6.74898 15.8371H7.73449ZM1.68711 13.7031L3.13437 19.6829H3.14331L4.59946 13.7031H5.78916C6.04967 16.6687 6.20354 19.382 6.25077 21.8415H5.24773C5.21244 19.5424 5.11469 17.3805 4.95483 15.3553H4.94609L3.4187 21.8415H2.65484L1.13669 15.3553H1.12775C1.01512 17.3002 0.944227 19.4622 0.914672 21.8415H0C0.0591094 18.9478 0.207035 16.2352 0.443777 13.7031H1.68711Z" fill="#00758F"/>
<path d="M17.9003 13.5823C19.4571 13.5823 20.2356 14.9292 20.2356 17.6217C20.2356 19.0848 20.0015 20.19 19.5337 20.9366C19.4494 21.073 19.3562 21.1909 19.2581 21.3001L20.3598 22.0378L20.3587 22.0377L19.9676 22.9525L18.5329 21.8188C18.295 21.9142 18.0334 21.9619 17.7482 21.9619C16.9838 21.9619 16.4128 21.6602 16.0353 21.0576C15.621 20.3909 15.4139 19.3414 15.4139 17.9109C15.4139 16.4561 15.6476 15.3551 16.1155 14.6075C16.5416 13.9237 17.1367 13.5823 17.9003 13.5823ZM13.133 13.5941C13.6894 13.5941 14.1953 13.7957 14.651 14.1975L14.4196 14.896C14.0296 14.6716 13.6452 14.5588 13.266 14.5588C12.9584 14.5588 12.7213 14.6591 12.5561 14.8609C12.39 15.0609 12.2872 15.3182 12.2872 15.6319C12.2872 16.114 12.5408 16.532 13.009 16.8852C13.1624 16.9988 13.3153 17.1136 13.4676 17.2298L13.5026 17.2564L13.5201 17.2697L13.5551 17.2964L13.5725 17.3097L13.6075 17.3364C13.9619 17.607 14.2955 17.8653 14.2955 17.8653C14.7637 18.3154 14.9971 18.7952 14.9971 19.5856C14.9971 20.2758 14.8103 20.8424 14.438 21.2857C14.0654 21.7271 13.5648 21.9484 12.938 21.9484C12.3517 21.9484 11.7835 21.6937 11.2332 21.1885L11.4906 20.4894C11.9643 20.8109 12.3928 20.9715 12.7777 20.9715C13.1387 20.9715 13.4212 20.8623 13.6256 20.6468C13.8296 20.4297 13.9518 20.1269 13.9518 19.743C13.9518 19.2598 13.7036 18.8467 13.2483 18.5001C13.1057 18.3935 12.9636 18.2858 12.8219 18.1771L12.7871 18.1504C12.723 18.1014 12.6584 18.0517 12.5952 18.0031L12.5609 17.9767C12.2535 17.7398 11.9876 17.5329 11.9876 17.5329C11.5324 17.082 11.3041 16.5982 11.3041 15.8011C11.3041 15.1418 11.4744 14.6089 11.8143 14.2035C12.155 13.7972 12.5947 13.5941 13.133 13.5941ZM22.0652 13.703V20.8403H23.9561V21.8414H21.1061V13.7031L22.0652 13.703ZM25.0069 20.8434V21.0126H24.799V21.8405H24.6401V21.0126H24.4241V20.8434H25.0069ZM25.3908 20.8434L25.5904 21.5231L25.7738 20.8434H25.9991V21.8405H25.8493V21.0817L25.6406 21.8405H25.5326L25.3235 21.0817H25.3155V21.8405H25.1738V20.8434H25.3908ZM17.8024 14.5832C16.885 14.5832 16.426 15.6085 16.426 17.6578C16.426 18.8317 16.5477 19.6829 16.7905 20.2134C17.0153 20.7044 17.3675 20.9495 17.847 20.9495C18.7644 20.9495 19.2233 19.9161 19.2233 17.8505C19.2233 16.6931 19.1017 15.8491 18.8592 15.3183C18.6341 14.8284 18.2821 14.5832 17.8025 14.5832" fill="#F29111"/>
<path d="M15.3978 0.504158C15.7021 -0.508518 16.7662 0.258381 17.1792 0.612123C17.2804 0.700628 17.3965 0.887608 17.5125 0.956719C17.6935 0.966347 17.8744 0.985533 18.0558 0.995779C18.3959 1.10402 18.7145 1.19246 18.9825 1.39917C20.2281 2.39252 21.0389 3.40479 21.7851 5.07681C21.9446 5.43097 22.0243 5.81421 22.1545 6.19745C22.3353 6.76871 22.5384 7.36836 22.7482 7.90854C22.8422 8.16463 22.9149 8.4494 23.0453 8.66567C23.0963 8.76456 23.2409 8.79372 23.3274 8.85279C23.5665 9.02038 23.8561 9.1476 24.081 9.34427C24.5009 9.69884 24.9069 10.1214 25.276 10.5539C25.4136 10.7209 25.5073 10.9572 25.6384 11.1338V11.2229C25.522 11.2713 25.4061 11.3208 25.2901 11.3605C25.0366 11.4486 24.8121 11.4287 24.5662 11.5169C24.4143 11.5766 24.2256 11.6554 24.0663 11.6754L24.081 11.6954C24.1747 12.0582 24.6819 12.3532 24.9139 12.5702C25.1956 12.8455 25.4567 13.1795 25.6668 13.563C25.7394 13.6608 25.812 13.7499 25.8842 13.8475C25.9347 13.9464 25.9489 14.0743 26 14.1624V14.1923C25.9434 14.1652 25.9027 14.1137 25.8642 14.0598L25.8412 14.0272C25.8182 13.9949 25.795 13.9631 25.7685 13.9369C25.6087 13.7891 25.4499 13.6122 25.2901 13.4747C25.0152 13.2386 24.6965 13.1015 24.4143 12.8645C24.2547 12.7269 24.1026 12.5702 23.9505 12.4127C23.8127 12.2747 23.6608 12.0096 23.5742 11.813C23.5232 11.7043 23.5162 11.5766 23.4579 11.498C23.4683 11.3667 23.5571 11.3277 23.6467 11.2957L23.6673 11.2883C23.6983 11.2775 23.7285 11.2666 23.7549 11.2522C24.1314 11.0358 24.5803 10.9572 25.1599 10.9769C25.1381 10.7798 24.7759 10.5342 24.6603 10.4162C24.4282 10.1897 24.1825 9.95335 23.9363 9.74718C23.8058 9.63922 23.581 9.56041 23.4365 9.47218C23.2409 9.36394 22.8063 9.25577 22.6979 9.0496C22.5138 8.72461 22.3816 8.33696 22.2532 7.94539L22.2183 7.83853C22.2066 7.80291 22.195 7.76732 22.1833 7.73173C22.0315 7.26019 21.843 6.76857 21.6909 6.28575C21.6114 6.05022 21.5749 5.8435 21.4878 5.6176C20.9593 4.23138 20.1771 3.07078 19.2288 2.25458C18.9172 1.98899 18.5697 1.74322 18.1861 1.57618C17.9687 1.48726 17.7078 1.53643 17.4761 1.46821H17.3237C17.1936 1.41856 17.085 1.23179 16.9835 1.13332C16.7593 0.927149 16.5347 0.788719 16.2666 0.641625C16.1726 0.582622 15.9044 0.445224 15.8107 0.553396C15.7527 0.573132 15.7233 0.602771 15.7091 0.681579C15.6514 0.799172 15.7021 0.976318 15.738 1.08477C15.8468 1.39903 15.9987 1.58581 16.1366 1.85139C16.2593 2.08692 16.4117 2.3525 16.4987 2.60859C16.6864 3.15908 16.7738 3.76898 16.9477 4.3194C17.0122 4.52639 17.1142 4.76192 17.2081 4.94863C17.2877 5.09682 17.4324 5.20396 17.4761 5.39156C17.5634 5.58824 17.3455 6.2372 17.2951 6.4433C17.1064 7.24974 17.143 8.37073 17.3603 9.06975L17.3718 9.10661L17.3834 9.14395C17.4627 9.39997 17.5476 9.67566 17.7585 9.74725C17.7731 9.72772 17.7585 9.73797 17.7873 9.72772C17.8384 9.18666 17.8527 8.6656 17.9904 8.24227C18.07 7.97758 18.2289 7.79046 18.3378 7.57439C18.4105 7.63326 18.4105 7.81075 18.4537 7.9282C18.548 8.23285 18.6492 8.56685 18.7654 8.87239C19.0038 9.50161 19.2722 10.1117 19.5762 10.6621C19.678 10.8587 19.8225 11.0751 19.9528 11.2522C20.0108 11.3207 20.0758 11.3603 20.1195 11.4486H20.1337V11.4783C19.9164 11.3698 19.7787 11.0655 19.6054 10.8878C19.2792 10.5538 18.8886 10.0522 18.6637 9.57086C18.5697 9.29455 18.468 9.02973 18.3666 8.75479V8.73492C18.3233 8.81345 18.3378 8.89144 18.3162 9.01027C18.2221 9.50161 18.2945 10.0621 17.9687 10.2389C17.5993 10.4459 17.3237 9.90487 17.2081 9.65902C16.8386 8.84302 16.7374 7.46643 16.998 6.35521C17.0559 6.10922 17.0637 5.81421 17.1648 5.61781C17.143 5.44025 17.0419 5.3917 16.9835 5.28291C16.8821 5.09696 16.7953 4.88034 16.7159 4.67383C16.5635 4.27044 16.455 3.78844 16.3393 3.35583C16.2884 3.17916 16.2738 3.00181 16.2231 2.83456C16.1366 2.5793 15.9771 2.32321 15.854 2.09737C15.6874 1.77279 15.2022 1.1437 15.3978 0.504158ZM17.7729 2.43069C17.7923 2.45696 17.8156 2.47993 17.8398 2.50255L17.8689 2.52965C17.9078 2.56609 17.9454 2.60447 17.9685 2.65673C18.005 2.72591 18.0118 2.7942 18.0556 2.86352C18.0556 3.09987 18.005 3.25701 17.9029 3.35493C17.9029 3.35493 17.8959 3.36525 17.8888 3.37487C17.8309 3.21733 17.7802 3.0606 17.7219 2.90319C17.6501 2.7658 17.5486 2.6568 17.4901 2.4998H17.476V2.48007C17.5634 2.45084 17.6501 2.43069 17.7729 2.43069Z" fill="#00758F"/>
</g>
<defs>
<clipPath id="clip0_804_278">
<rect width="26" height="24" fill="white"/>
</clipPath>
</defs>
</svg>
