<svg width="32" height="32" viewBox="0 0 32 32" fill="none" xmlns="http://www.w3.org/2000/svg">
<path d="M14.486 20.3811C14.5652 21.4246 14.5498 22.4732 14.44 23.5141C14.4354 23.6603 14.3924 23.8028 14.3153 23.9273C14.2383 24.0517 14.1299 24.1537 14.001 24.2231C13.17 24.8401 10.385 24.9881 10.038 23.6771C9.91 23.6721 10.012 23.2481 9.89 23.2641C9.64641 23.244 9.41091 23.1671 9.20248 23.0394C8.99405 22.9118 8.81852 22.737 8.69 22.5291C8.695 21.0951 8.853 15.9221 6.29 17.3151C5.73306 17.6255 5.31537 18.1365 5.122 18.7441C4.94931 19.2741 4.86815 19.8297 4.882 20.3871C4.862 21.1011 5.04 21.8821 5.066 22.7391C5.076 23.1221 5.137 23.2191 4.852 23.5451C4.393 24.0701 3.592 23.6271 3.159 23.0501C2.97588 22.7594 2.87529 22.4245 2.868 22.0811C2.52363 18.3352 2.86246 14.5579 3.868 10.9331C4.235 9.70305 4.363 9.52505 5.531 9.24905C6.86001 8.95673 8.22678 8.87574 9.581 9.00905C10.632 8.66705 13.126 6.81505 14.202 8.28505C15.8346 7.92257 17.5233 7.89066 19.1685 8.19122C20.8137 8.49178 22.382 9.11871 23.781 10.0351C25.198 10.1423 26.62 10.168 28.04 10.1121C28.24 9.98405 28.474 9.84705 28.678 9.72905C28.8277 9.62765 28.9959 9.55664 29.173 9.52005C29.403 9.48405 29.703 9.47405 29.773 9.76005C29.8339 10.0536 29.8544 10.354 29.834 10.6531C29.8271 10.8333 29.76 11.0061 29.6434 11.1438C29.5269 11.2816 29.3676 11.3763 29.191 11.4131C28.7918 11.3475 28.4048 11.2221 28.043 11.0411C26.743 11.0771 25.943 11.0051 24.643 11.0411C24.852 11.2651 24.843 11.4131 24.995 11.7091C25.3686 12.6923 25.4934 13.7527 25.3582 14.7959C25.223 15.839 24.832 16.8325 24.22 17.6881C24.128 19.1781 24.24 20.6831 24.251 22.1781C24.256 22.6931 24.292 23.1831 23.807 23.5251C23.3792 23.7815 22.8984 23.9365 22.4014 23.9781C21.9044 24.0197 21.4044 23.9468 20.94 23.7651C20.6869 23.6198 20.4608 23.4316 20.272 23.2091C20.106 23.2273 19.9386 23.2306 19.772 23.2191C19.4887 23.1398 19.2438 22.9604 19.083 22.7141C18.9908 22.5456 18.9122 22.37 18.848 22.1891C18.848 21.4891 18.822 21.2151 18.822 20.5161C17.3803 20.7741 15.9009 20.7326 14.476 20.3941L14.486 20.3811Z" fill="#CCCCCC"/>
<path d="M12.0951 24.839C11.682 24.8451 11.2708 24.783 10.8781 24.655C10.66 24.5964 10.4586 24.4879 10.2899 24.3379C10.1212 24.1879 9.98975 24.0006 9.90606 23.791C9.83317 23.7002 9.79743 23.5851 9.80606 23.469V23.424C9.55188 23.3859 9.30881 23.2938 9.0932 23.1539C8.87759 23.014 8.69443 22.8296 8.55606 22.613L8.53205 22.574V22.314C8.54105 21.132 8.56406 17.991 7.49806 17.352C7.31864 17.2648 7.11889 17.2281 6.9202 17.2457C6.7215 17.2633 6.53134 17.3346 6.37006 17.452C5.84463 17.7448 5.45108 18.2274 5.27006 18.801C5.10519 19.3137 5.02811 19.8506 5.04206 20.389C5.0421 20.7905 5.0705 21.1915 5.12706 21.589C5.17006 21.955 5.21406 22.335 5.22706 22.734C5.22706 22.793 5.22706 22.844 5.23406 22.89C5.25682 23.0283 5.24499 23.1701 5.19962 23.3027C5.15425 23.4353 5.07676 23.5546 4.97406 23.65C4.89283 23.7459 4.79057 23.8218 4.67523 23.8717C4.55989 23.9217 4.43459 23.9444 4.30906 23.938C4.0528 23.9026 3.80682 23.8138 3.58702 23.6774C3.36723 23.5409 3.17851 23.3599 3.03306 23.146C2.82797 22.8327 2.71628 22.4674 2.71106 22.093C2.36224 18.3274 2.70385 14.5298 3.71906 10.887C4.09406 9.63199 4.25906 9.38698 5.49806 9.09398C6.83291 8.80021 8.20547 8.71687 9.56606 8.84698C9.86514 8.73052 10.1573 8.59697 10.4411 8.44698C11.6731 7.83098 13.3511 6.99398 14.2721 8.11298C15.9044 7.76073 17.5904 7.73561 19.2326 8.03908C20.8747 8.34255 22.4404 8.96859 23.8391 9.88098C25.2235 9.98508 26.6128 10.0091 28.0001 9.95299C28.2001 9.82999 28.4121 9.70199 28.6061 9.58999L28.6621 9.55798C28.812 9.45953 28.9799 9.39157 29.1561 9.35798C29.6001 9.28898 29.8561 9.41098 29.9331 9.71898C29.9972 10.0276 30.019 10.3435 29.9981 10.658C29.988 10.8765 29.9044 11.0852 29.7608 11.2502C29.6172 11.4152 29.4221 11.5269 29.2071 11.567H29.1811L29.1561 11.56C29.0697 11.5379 28.983 11.5173 28.8961 11.498C28.584 11.4446 28.2819 11.3441 28.0001 11.2C27.3671 11.216 26.8451 11.207 26.3411 11.2C25.9081 11.193 25.4631 11.185 24.9471 11.193C24.9791 11.256 25.0021 11.317 25.0271 11.379C25.0595 11.4664 25.0969 11.5518 25.1391 11.635C25.527 12.6397 25.6605 13.7247 25.5278 14.7935C25.395 15.8623 25 16.8817 24.3781 17.761C24.3221 18.727 24.3511 19.718 24.3781 20.677C24.3931 21.168 24.4081 21.677 24.4111 22.177V22.263C24.4592 22.5199 24.437 22.785 24.3466 23.0302C24.2563 23.2755 24.1013 23.4917 23.8981 23.656C23.4488 23.9295 22.9423 24.095 22.4183 24.1396C21.8943 24.1842 21.367 24.1066 20.8781 23.913C20.6628 23.8064 20.471 23.6578 20.3141 23.476C20.2791 23.44 20.2441 23.404 20.2081 23.37C20.1591 23.37 20.1081 23.376 20.0631 23.381C19.9535 23.3982 19.8419 23.3962 19.7331 23.375C19.4114 23.286 19.1331 23.083 18.9501 22.804C18.8797 22.6905 18.8223 22.5694 18.7791 22.443C18.7556 22.3796 18.7303 22.3169 18.7031 22.255L18.6891 22.224V22.19C18.6891 21.843 18.6831 21.596 18.6761 21.358C18.6711 21.158 18.6661 20.958 18.6641 20.699C17.3366 20.9174 15.9801 20.8862 14.6641 20.607C14.7242 21.5841 14.7024 22.5645 14.5991 23.538C14.5915 23.7048 14.5417 23.8669 14.4542 24.0092C14.3668 24.1514 14.2445 24.269 14.0991 24.351C13.4898 24.6979 12.7955 24.8669 12.0951 24.839ZM10.1261 23.521H10.1621L10.1921 23.635C10.2525 23.8117 10.3568 23.9703 10.4951 24.0958C10.6334 24.2214 10.8013 24.3098 10.9831 24.353C11.9538 24.6489 13.0015 24.5561 13.9051 24.094C14.0161 24.0374 14.1097 23.9517 14.1757 23.846C14.2418 23.7403 14.2779 23.6186 14.2801 23.494C14.3846 22.5055 14.403 21.5097 14.3351 20.518L14.2501 20.494L14.6001 19.8L14.6411 20.263C16.0114 20.566 17.4281 20.5959 18.8101 20.351L18.9911 20.327V20.509C18.9911 20.856 18.9971 21.103 19.0041 21.341C19.0111 21.579 19.0161 21.814 19.0171 22.148C19.0421 22.207 19.0641 22.264 19.0861 22.319C19.1214 22.4237 19.168 22.5243 19.2251 22.619C19.3651 22.8335 19.5783 22.9899 19.8251 23.059C19.8967 23.0697 19.9695 23.0697 20.0411 23.059C20.122 23.0494 20.2035 23.045 20.2851 23.046H20.3451L20.3891 23.087C20.4431 23.137 20.4971 23.192 20.5511 23.247C20.6794 23.3974 20.8356 23.5217 21.0111 23.613C21.4504 23.7844 21.923 23.8533 22.3929 23.8145C22.8629 23.7757 23.3178 23.6301 23.7231 23.389C24.1111 23.115 24.1061 22.739 24.1001 22.262V22.175C24.1001 21.675 24.0821 21.175 24.0671 20.683C24.0381 19.696 24.0081 18.675 24.0671 17.674V17.608L24.1171 17.564C24.7066 16.7349 25.0824 15.7732 25.2113 14.7641C25.3402 13.755 25.2182 12.7296 24.8561 11.779C24.8086 11.6858 24.7666 11.59 24.7301 11.492C24.6898 11.3633 24.6215 11.2451 24.5301 11.146L24.2891 10.887L24.6421 10.877C25.2961 10.859 25.8301 10.868 26.3481 10.877C26.8661 10.886 27.3931 10.895 28.0391 10.877H28.0861L28.1261 10.902C28.3867 11.0433 28.6688 11.1409 28.9611 11.191C29.0431 11.21 29.1241 11.228 29.2031 11.248C29.3346 11.2071 29.4503 11.1267 29.5346 11.0178C29.6188 10.9088 29.6675 10.7766 29.6741 10.639C29.6931 10.3553 29.6736 10.0704 29.6161 9.79198C29.6021 9.73098 29.5751 9.61599 29.2001 9.67499C29.0629 9.70195 28.9324 9.75563 28.8161 9.83299L28.7601 9.86498C28.5601 9.97898 28.3311 10.118 28.1291 10.244L28.0921 10.267H28.0491C26.6228 10.3254 25.1943 10.2997 23.7711 10.19H23.7291L23.6941 10.166C22.3126 9.26019 20.7635 8.64079 19.1384 8.34449C17.5133 8.04819 15.8453 8.081 14.2331 8.44098L14.1331 8.45898L14.0741 8.37898C13.3271 7.35898 11.7401 8.15198 10.5811 8.73098C10.2742 8.89511 9.95686 9.03876 9.63105 9.16099L9.59906 9.17098H9.56606C8.2286 9.03904 6.87871 9.11868 5.56606 9.40698C4.44506 9.67098 4.36606 9.80698 4.01906 10.981C3.01362 14.586 2.67473 18.3443 3.01906 22.071C3.0212 22.3839 3.11054 22.69 3.27706 22.955C3.39478 23.1305 3.54713 23.2801 3.72477 23.3947C3.90241 23.5092 4.10158 23.5862 4.31006 23.621C4.3881 23.6255 4.46611 23.6117 4.53784 23.5806C4.60956 23.5495 4.673 23.502 4.72306 23.442C4.79827 23.3777 4.85485 23.2945 4.88687 23.2009C4.91889 23.1073 4.92517 23.0068 4.90506 22.91C4.90506 22.861 4.89906 22.81 4.89806 22.746C4.88276 22.3719 4.84939 21.9988 4.79806 21.628C4.73957 21.2162 4.71049 20.8009 4.71106 20.385C4.69643 19.8081 4.78134 19.233 4.96206 18.685C5.16998 18.0434 5.61298 17.5043 6.20206 17.176C6.4108 17.0293 6.65564 16.9425 6.91013 16.9249C7.16462 16.9073 7.41909 16.9595 7.64606 17.076C8.86906 17.809 8.84606 20.966 8.83606 22.314V22.481C8.9505 22.6545 9.10212 22.8003 9.27994 22.9079C9.45775 23.0155 9.65728 23.0821 9.86406 23.103C9.8908 23.1 9.91787 23.1025 9.94364 23.1102C9.96942 23.1179 9.99337 23.1308 10.0141 23.148C10.0502 23.1886 10.0778 23.2361 10.095 23.2877C10.1122 23.3393 10.1187 23.3938 10.1141 23.448C10.1231 23.471 10.1241 23.5 10.1261 23.521Z" fill="#CCCCCC"/>
<path d="M13.891 19.981C13.9703 21.0246 13.9549 22.0732 13.845 23.114C13.8404 23.2603 13.7974 23.4028 13.7204 23.5273C13.6433 23.6517 13.5349 23.7537 13.406 23.823C12.575 24.44 9.79003 24.588 9.44303 23.277C9.31503 23.272 9.41703 22.848 9.29503 22.864C9.05144 22.844 8.81594 22.7671 8.60751 22.6394C8.39908 22.5118 8.22355 22.3369 8.09503 22.129C8.10003 20.695 8.25803 15.522 5.69503 16.915C5.13809 17.2254 4.7204 17.7365 4.52703 18.344C4.35434 18.8741 4.27318 19.4297 4.28703 19.987C4.26703 20.701 4.44503 21.482 4.47103 22.339C4.48103 22.722 4.54203 22.819 4.25703 23.145C3.79803 23.67 2.99703 23.227 2.56403 22.65C2.38091 22.3594 2.28032 22.0244 2.27303 21.681C1.92866 17.9351 2.26749 14.1578 3.27303 10.533C3.64003 9.30303 3.76803 9.12503 4.93603 8.84903C6.26503 8.55671 7.63181 8.47571 8.98603 8.60903C10.037 8.26703 12.531 6.41503 13.607 7.88503C15.2397 7.52254 16.9284 7.49064 18.5735 7.79119C20.2187 8.09175 21.787 8.71869 23.186 9.63503C24.6031 9.74228 26.0251 9.76799 27.445 9.71203C27.645 9.58403 27.879 9.44703 28.083 9.32903C28.2328 9.22762 28.4009 9.15661 28.578 9.12003C28.808 9.08403 29.108 9.07403 29.178 9.36003C29.2389 9.65353 29.2595 9.95397 29.239 10.253C29.2321 10.4333 29.165 10.6061 29.0485 10.7438C28.9319 10.8815 28.7727 10.9763 28.596 11.013C28.1968 10.9475 27.8098 10.8221 27.448 10.641C26.148 10.677 25.348 10.605 24.048 10.641C24.257 10.865 24.248 11.013 24.4 11.309C24.7737 12.2923 24.8984 13.3527 24.7632 14.3958C24.628 15.439 24.237 16.4325 23.625 17.288C23.533 18.778 23.645 20.283 23.656 21.778C23.661 22.293 23.697 22.783 23.212 23.125C22.7843 23.3815 22.3034 23.5365 21.8064 23.5781C21.3094 23.6197 20.8095 23.5468 20.345 23.365C20.0919 23.2197 19.8659 23.0316 19.677 22.809C19.511 22.8272 19.3437 22.8306 19.177 22.819C18.8937 22.7398 18.6489 22.5603 18.488 22.314C18.3958 22.1456 18.3173 21.97 18.253 21.789C18.253 21.089 18.227 20.815 18.227 20.116C16.7853 20.3741 15.306 20.3325 13.881 19.994L13.891 19.981Z" fill="#373435"/>
<path d="M11.4999 24.439C11.0869 24.4452 10.6757 24.383 10.2829 24.255C10.0649 24.1965 9.8635 24.0879 9.69477 23.9379C9.52604 23.788 9.39461 23.6007 9.31091 23.391C9.23802 23.3002 9.20229 23.1852 9.21091 23.069V23.024C8.95673 22.9859 8.71366 22.8938 8.49805 22.754C8.28244 22.6141 8.09929 22.4296 7.96091 22.213L7.93691 22.174V21.914C7.94591 20.732 7.96891 17.591 6.90291 16.952C6.72349 16.8649 6.52375 16.8281 6.32505 16.8457C6.12636 16.8633 5.93619 16.9347 5.77491 17.052C5.24949 17.3448 4.85594 17.8274 4.67491 18.401C4.51005 18.9138 4.43296 19.4506 4.44691 19.989C4.44694 20.3905 4.47534 20.7915 4.53191 21.189C4.57491 21.556 4.61891 21.935 4.63191 22.335C4.63191 22.394 4.63191 22.445 4.63891 22.491C4.66167 22.6293 4.64984 22.7711 4.60448 22.9037C4.55911 23.0363 4.48161 23.1557 4.37891 23.251C4.29774 23.347 4.19549 23.423 4.08014 23.4729C3.96478 23.5229 3.83945 23.5455 3.71391 23.539C3.45765 23.5036 3.21167 23.4148 2.99188 23.2784C2.77208 23.142 2.58336 22.961 2.43791 22.747C2.23287 22.4337 2.12119 22.0685 2.11591 21.694C1.76698 17.9282 2.10858 14.1302 3.12391 10.487C3.49891 9.23204 3.66391 8.98704 4.90291 8.69404C6.23776 8.40023 7.61032 8.31689 8.97091 8.44704C9.27 8.33057 9.56215 8.19702 9.84591 8.04704C11.0779 7.43104 12.7559 6.59304 13.6769 7.71304C15.3093 7.36098 16.9954 7.33605 18.6375 7.63969C20.2797 7.94334 21.8453 8.56952 23.2439 9.48204C24.6267 9.58665 26.0143 9.61135 27.3999 9.55604C27.5949 9.43504 27.8129 9.30404 28.0059 9.19304L28.0619 9.16104C28.2118 9.06258 28.3797 8.99462 28.5559 8.96104C28.9999 8.89204 29.2559 9.01404 29.3329 9.32204C29.3971 9.63064 29.4189 9.94654 29.3979 10.261C29.3879 10.4795 29.3043 10.6882 29.1607 10.8533C29.0171 11.0183 28.8219 11.1299 28.6069 11.17H28.5809L28.5559 11.163C28.4696 11.141 28.3829 11.1203 28.2959 11.101C27.9862 11.0463 27.6865 10.9452 27.4069 10.801C26.7739 10.817 26.2519 10.808 25.7479 10.801C25.3149 10.794 24.8699 10.786 24.3539 10.794C24.3859 10.857 24.4089 10.918 24.4339 10.98C24.4664 11.0674 24.5038 11.1529 24.5459 11.236C24.9338 12.2408 25.0672 13.3258 24.9345 14.3946C24.8017 15.4634 24.4068 16.4827 23.7849 17.362C23.7289 18.328 23.7579 19.319 23.7849 20.277C23.7989 20.769 23.8139 21.277 23.8179 21.777V21.863C23.8662 22.1198 23.8441 22.3849 23.7539 22.6301C23.6638 22.8754 23.509 23.0916 23.3059 23.256C22.8567 23.5295 22.3502 23.6951 21.8261 23.7397C21.3021 23.7843 20.7749 23.7067 20.2859 23.513C20.0706 23.4065 19.8789 23.2579 19.7219 23.076C19.6869 23.04 19.6519 23.004 19.6159 22.97C19.5669 22.97 19.5159 22.976 19.4709 22.981C19.3614 22.9983 19.2497 22.9963 19.1409 22.975C18.8193 22.886 18.541 22.6831 18.3579 22.404C18.2875 22.2905 18.2301 22.1694 18.1869 22.043C18.1635 21.9796 18.1381 21.9169 18.1109 21.855L18.0969 21.824V21.79C18.0969 21.443 18.0909 21.196 18.0839 20.958C18.0789 20.758 18.0729 20.558 18.0719 20.299C16.7445 20.5174 15.3879 20.4862 14.0719 20.207C14.1295 21.1833 14.1054 22.1627 13.9999 23.135C13.9924 23.3018 13.9426 23.464 13.8551 23.6062C13.7676 23.7484 13.6454 23.8661 13.4999 23.948C12.8922 24.2952 12.1993 24.4653 11.4999 24.439ZM9.53091 23.121H9.56691L9.59691 23.235C9.65739 23.4118 9.76166 23.5703 9.89997 23.6959C10.0383 23.8214 10.2062 23.9099 10.3879 23.953C11.3586 24.2491 12.4064 24.1562 13.3099 23.694C13.421 23.6375 13.5145 23.5517 13.5806 23.446C13.6467 23.3403 13.6827 23.2187 13.6849 23.094C13.7894 22.1055 13.8078 21.1098 13.7399 20.118L13.6549 20.094L13.9999 19.405L14.0409 19.868C15.4113 20.171 16.828 20.2009 18.2099 19.956L18.3909 19.932V20.114C18.3909 20.461 18.3969 20.708 18.4039 20.946C18.4109 21.184 18.4159 21.419 18.4169 21.753C18.4419 21.812 18.4639 21.869 18.4859 21.925C18.5212 22.0298 18.5678 22.1304 18.6249 22.225C18.765 22.4396 18.9782 22.5959 19.2249 22.665C19.2965 22.6759 19.3693 22.6759 19.4409 22.665C19.5219 22.6554 19.6034 22.6511 19.6849 22.652H19.7449L19.7889 22.693C19.8429 22.743 19.8969 22.793 19.9509 22.853C20.0793 23.0035 20.2355 23.1277 20.4109 23.219C20.8502 23.3904 21.3228 23.4593 21.7928 23.4205C22.2628 23.3817 22.7177 23.2362 23.1229 22.995C23.5109 22.721 23.5059 22.345 23.4999 21.868V21.781C23.4999 21.281 23.4819 20.781 23.4669 20.288C23.4379 19.301 23.4079 18.281 23.4669 17.28V17.214L23.5169 17.17C24.1063 16.3409 24.4822 15.3792 24.6111 14.3701C24.74 13.361 24.618 12.3357 24.2559 11.385C24.2085 11.2918 24.1664 11.196 24.1299 11.098C24.0897 10.9693 24.0214 10.8511 23.9299 10.752L23.6889 10.493L24.0419 10.483C24.6959 10.465 25.2299 10.474 25.7479 10.483C26.2659 10.492 26.7929 10.501 27.4389 10.483H27.4859L27.5259 10.508C27.7866 10.6493 28.0687 10.7469 28.3609 10.797C28.4429 10.816 28.5239 10.834 28.6029 10.854C28.7344 10.8131 28.8502 10.7328 28.9344 10.6238C29.0187 10.5149 29.0674 10.3826 29.0739 10.245C29.093 9.96138 29.0735 9.67645 29.0159 9.39804C29.0019 9.33704 28.9749 9.22304 28.5999 9.28104C28.4628 9.30797 28.3323 9.36166 28.2159 9.43904L28.1589 9.47104C27.9589 9.58604 27.7279 9.72504 27.5279 9.85004L27.4999 9.87004H27.4569C26.0306 9.92838 24.6022 9.90267 23.1789 9.79304H23.1369L23.0999 9.76704C21.7185 8.86124 20.1694 8.24185 18.5443 7.94554C16.9192 7.64924 15.2511 7.68205 13.6389 8.04204L13.5389 8.06004L13.4799 7.98004C12.7329 6.96004 11.1459 7.75304 9.98691 8.33204C9.68007 8.49617 9.36271 8.63981 9.03691 8.76204L9.00491 8.77204H8.97191C7.63446 8.64003 6.28456 8.71967 4.97191 9.00804C3.85091 9.27204 3.77191 9.40804 3.42491 10.582C2.41947 14.187 2.08058 17.9453 2.42491 21.672C2.42705 21.985 2.5164 22.2911 2.68291 22.556C2.80063 22.7316 2.95299 22.8812 3.13062 22.9957C3.30826 23.1103 3.50743 23.1873 3.71591 23.222C3.79402 23.2271 3.87221 23.2135 3.94403 23.1824C4.01585 23.1513 4.07922 23.1035 4.12891 23.043C4.20413 22.9788 4.26071 22.8955 4.29272 22.8019C4.32474 22.7084 4.33102 22.6079 4.31091 22.511C4.31091 22.462 4.30491 22.411 4.30391 22.347C4.28862 21.973 4.25525 21.5999 4.20391 21.229C4.14538 20.8173 4.11631 20.4019 4.11691 19.986C4.10228 19.4092 4.18719 18.8341 4.36791 18.286C4.57583 17.6445 5.01883 17.1054 5.60791 16.777C5.81665 16.6304 6.06149 16.5436 6.31598 16.5259C6.57048 16.5083 6.82495 16.5606 7.05191 16.677C8.27491 17.41 8.25191 20.567 8.24191 21.915V22.082C8.35781 22.256 8.5112 22.4018 8.69082 22.5088C8.87044 22.6157 9.07173 22.6811 9.27991 22.7C9.30665 22.6971 9.33372 22.6995 9.3595 22.7072C9.38527 22.715 9.40922 22.7278 9.42991 22.745C9.46609 22.7856 9.49362 22.8332 9.51082 22.8847C9.52801 22.9363 9.53451 22.9909 9.52991 23.045C9.5282 23.0704 9.52854 23.0958 9.53091 23.121Z" fill="#373435"/>
<path d="M18.5721 19.946C18.8929 19.915 19.2099 19.8517 19.518 19.757C19.6728 20.6646 19.7188 21.5874 19.6551 22.506C19.4215 22.5207 19.1889 22.4655 18.987 22.3474C18.785 22.2293 18.6228 22.0537 18.521 21.843C18.4694 21.2106 18.4865 20.5746 18.5721 19.946Z" fill="#6978AB"/>
<path d="M19.6221 22.666C19.3648 22.6748 19.1105 22.6086 18.89 22.4757C18.6695 22.3427 18.4924 22.1487 18.3801 21.917L18.3651 21.889V21.857C18.3128 21.213 18.3303 20.5653 18.4171 19.925L18.4331 19.801L18.5571 19.787C18.8674 19.7568 19.1739 19.6959 19.4721 19.605L19.6361 19.552L19.6761 19.72C19.8265 20.5389 19.8759 21.3731 19.8231 22.204L19.8151 22.663H19.6611L19.6221 22.666ZM18.6781 21.796C18.7562 21.95 18.8729 22.0811 19.0168 22.1767C19.1607 22.2722 19.3268 22.3288 19.4991 22.341V22.197C19.5421 21.4495 19.5086 20.6996 19.3991 19.959C19.1747 20.018 18.9465 20.0615 18.7161 20.089C18.6463 20.6566 18.6332 21.2298 18.6771 21.8L18.6781 21.796Z" fill="#373435"/>
<path d="M4.05197 22.683C3.82697 21.209 3.59797 18.608 4.65197 17.368C4.73538 17.2556 4.82554 17.1484 4.92197 17.047C6.58497 15.481 8.03397 16.828 8.42697 18.562C8.51027 19.6583 8.5273 20.7586 8.47797 21.857C8.57621 22.0481 8.72783 22.2065 8.91441 22.313C9.10099 22.4195 9.31449 22.4695 9.52897 22.457C9.68197 22.773 9.64097 23.008 9.81497 23.217C10.1452 23.5877 10.5784 23.8517 11.0593 23.9753C11.5401 24.0989 12.0469 24.0765 12.515 23.911C12.8282 23.7782 13.1331 23.6266 13.428 23.457C13.6667 22.1156 13.6327 20.7399 13.328 19.412C13.328 19.228 13.267 19.106 13.267 18.922C13.3814 18.9384 13.489 18.9862 13.578 19.06C13.378 19.794 16.134 20.299 19.349 19.412C19.385 19.284 19.323 19.126 19.4 19.08C19.4497 19.0489 19.5057 19.0291 19.5639 19.022C19.6221 19.0149 19.6812 19.0207 19.737 19.039C19.752 19.274 19.757 19.503 19.773 19.739C20.0223 19.7625 20.2731 19.7658 20.523 19.749C20.3589 19.8965 20.1433 19.9734 19.923 19.963C19.979 19.963 19.892 20.07 19.943 20.08C20.091 20.116 20.372 20.06 20.489 20.111C20.27 20.239 20.025 20.167 19.877 20.311C19.913 21.091 19.933 21.928 19.964 22.711C20.4462 23.077 21.0414 23.2627 21.6462 23.2356C22.2511 23.2086 22.8273 22.9706 23.275 22.563C23.3705 20.9962 23.3371 19.4243 23.175 17.863C23.058 17.848 22.94 17.827 22.823 17.812C24.65 15.354 25.002 12.839 23.471 10.569C23.456 10.469 23.389 10.369 23.371 10.269C24.703 10.218 26.071 10.356 27.407 10.305C27.7676 10.4416 28.1398 10.5456 28.519 10.616C28.912 10.478 28.983 9.38699 28.596 9.50899C28.209 9.63099 27.996 9.87599 27.581 10.029C26.05 10.029 24.351 9.96799 22.821 9.96799C21.5719 8.9742 20.0926 8.31114 18.5196 8.04006C16.9466 7.76898 15.3306 7.89862 13.821 8.41699C14.2859 9.41821 14.5483 10.5015 14.5929 11.6045C14.6375 12.7075 14.4635 13.8085 14.081 14.844C13.994 15.13 12.673 15.966 13.754 15.053C14.846 14.125 14.162 7.67799 12.82 7.66699C11.2408 7.68338 9.72482 8.28977 8.56997 9.36699C8.36097 9.14299 8.37597 9.23399 8.46997 8.91799C7.32781 8.81964 6.17725 8.92116 5.06997 9.21799C4.78299 9.22715 4.50544 9.3226 4.27353 9.49189C4.04162 9.66118 3.86613 9.89645 3.76997 10.167C2.7608 13.7735 2.35532 17.5221 2.56997 21.261C2.62251 21.7093 2.74113 22.1474 2.92197 22.561C3.52197 23.219 3.84597 23.03 4.04497 22.683H4.05197Z" fill="url(#paint0_linear_804_282)"/>
<path d="M6.4461 10.422C6.10965 10.2848 5.74431 10.2336 5.3831 10.273C5.34997 10.2694 5.3166 10.2774 5.2887 10.2956C5.2608 10.3139 5.24009 10.3412 5.2301 10.373C5.21667 10.3961 5.20798 10.4216 5.20455 10.448C5.20111 10.4745 5.203 10.5013 5.2101 10.527C5.2411 10.614 5.2461 10.609 5.3221 10.627C5.42276 10.642 5.52553 10.6331 5.6221 10.601C5.73627 10.5409 5.86222 10.5065 5.99111 10.5003C6.12 10.4941 6.24868 10.5162 6.3681 10.565C6.4801 10.56 6.4911 10.514 6.4551 10.426L6.4461 10.422Z" fill="#373435"/>
<path d="M5.40592 10.791C5.36627 10.7911 5.32672 10.7871 5.28792 10.779H5.27492C5.22198 10.7736 5.17222 10.7512 5.1331 10.7152C5.09397 10.6791 5.06759 10.6313 5.05792 10.579C5.04383 10.532 5.03932 10.4826 5.04465 10.4339C5.04997 10.3851 5.06503 10.3379 5.08892 10.295C5.11211 10.2397 5.15165 10.1929 5.20223 10.1607C5.25281 10.1285 5.31202 10.1126 5.37192 10.115C5.74523 10.0755 6.12256 10.1266 6.47192 10.264H6.55392L6.59492 10.364C6.61789 10.4017 6.62986 10.4451 6.62949 10.4893C6.62912 10.5334 6.61642 10.5766 6.59282 10.6139C6.56921 10.6513 6.53565 10.6813 6.49591 10.7005C6.45617 10.7198 6.41184 10.7276 6.36792 10.723H6.34392L6.31692 10.715C6.21843 10.6724 6.11168 10.6522 6.00443 10.656C5.89718 10.6598 5.79213 10.6875 5.69692 10.737L5.67892 10.748L5.65892 10.753C5.57658 10.7766 5.49154 10.7893 5.40592 10.791ZM5.36192 10.468C5.42925 10.4749 5.49729 10.4681 5.56192 10.448L5.61592 10.421C5.54592 10.421 5.47492 10.421 5.40292 10.432H5.37692L5.37092 10.444C5.36656 10.4514 5.36352 10.4595 5.36192 10.468ZM5.62192 11.687C5.66762 11.5919 5.73974 11.512 5.82965 11.4569C5.91956 11.4017 6.02346 11.3737 6.12892 11.376C6.14892 11.248 6.12892 11.176 5.96492 11.176C5.73201 11.2941 5.53307 11.4696 5.38692 11.686C5.303 11.8741 5.27623 12.0828 5.30992 12.286C5.32821 12.4249 5.39996 12.5512 5.50992 12.638C5.62377 12.7093 5.75651 12.7444 5.89072 12.7389C6.02492 12.7334 6.15432 12.6874 6.26192 12.607C6.61992 12.398 6.97792 11.801 6.34892 11.576C6.22287 11.5514 6.09317 11.5523 5.96746 11.5785C5.84175 11.6048 5.72256 11.656 5.61692 11.729C5.60692 11.734 5.60192 11.714 5.61692 11.688L5.62192 11.687Z" fill="#373435"/>
<path d="M5.81603 12.9059C5.66744 12.9089 5.5227 12.8585 5.40803 12.7639C5.26655 12.6502 5.17476 12.486 5.15203 12.3059C5.1113 12.0679 5.14627 11.8231 5.25203 11.6059C5.41206 11.3658 5.63059 11.1703 5.88703 11.0379L5.92203 11.0169H5.96003C6.00909 11.0122 6.05858 11.0183 6.10505 11.0347C6.15151 11.0511 6.19383 11.0775 6.22903 11.1119C6.25926 11.1529 6.28012 11.2001 6.29014 11.25C6.30016 11.2999 6.2991 11.3515 6.28703 11.4009C6.42283 11.4215 6.54928 11.4824 6.6499 11.5759C6.75051 11.6694 6.8206 11.791 6.85103 11.9249C6.84526 12.0945 6.79536 12.2595 6.70627 12.4039C6.61718 12.5482 6.49198 12.6668 6.34303 12.7479C6.1842 12.8458 6.00249 12.9002 5.81603 12.9059ZM5.49303 11.8399C5.45603 11.9809 5.44787 12.1278 5.46903 12.2719C5.48305 12.3704 5.53511 12.4594 5.61403 12.5199C5.80703 12.6809 6.12003 12.5089 6.18103 12.4729C6.27725 12.4215 6.35954 12.3475 6.42085 12.2573C6.48216 12.1671 6.52066 12.0633 6.53303 11.9549C6.52403 11.8549 6.44403 11.7829 6.29603 11.7299C6.088 11.6986 5.87583 11.7479 5.70303 11.8679L5.69003 11.8749L5.58303 11.9289L5.49503 11.8399H5.49303Z" fill="#373435"/>
<path d="M5.89999 12.381C5.90207 12.4174 5.90914 12.4534 5.92099 12.488C5.92612 12.5041 5.93317 12.5195 5.94199 12.534C5.9128 12.5533 5.87933 12.5653 5.84447 12.5688C5.80961 12.5723 5.77443 12.5672 5.74199 12.554C5.52099 12.454 5.53699 12.144 5.64999 11.976C5.70919 11.8893 5.78789 11.8178 5.87976 11.767C5.97163 11.7163 6.07412 11.6879 6.17899 11.684C6.29699 11.745 6.33299 11.802 6.27099 11.817C6.23596 11.8236 6.20221 11.8357 6.17099 11.853C6.14725 11.8636 6.12604 11.8792 6.1088 11.8987C6.09156 11.9182 6.07867 11.9411 6.07099 11.966C6.12199 11.981 6.14799 11.966 6.19399 11.986V12.145C6.14485 12.1203 6.08872 12.1132 6.03499 12.125C5.93499 12.156 5.89599 12.299 5.89599 12.386L5.89999 12.381Z" fill="#FEFEFE"/>
<path d="M6.323 16.459C6.60629 16.3983 6.87472 16.282 7.11273 16.1168C7.35075 15.9516 7.55362 15.7408 7.7096 15.4967C7.86558 15.2525 7.97156 14.9799 8.02141 14.6945C8.07126 14.4091 8.06398 14.1166 8 13.834C7.82097 13.8303 7.64556 13.7829 7.489 13.696C7.479 13.63 7.474 13.563 7.463 13.496C7.877 13.696 8.463 13.756 8.387 13.123C8.443 13.108 8.53 13.103 8.587 13.087C8.567 13.531 8.487 13.572 8.214 13.761C8.29251 14.2451 8.25156 14.741 8.0947 15.2057C7.93785 15.6703 7.66984 16.0896 7.314 16.427C7.29281 16.5659 7.30516 16.7079 7.35 16.841C7.21909 16.7043 7.05845 16.5995 6.88053 16.5348C6.7026 16.4701 6.51217 16.4473 6.324 16.468L6.323 16.459Z" fill="#373435"/>
<path d="M7.63206 17.391L7.23206 16.949C7.11594 16.8294 6.97374 16.7383 6.81657 16.6828C6.6594 16.6273 6.49153 16.6089 6.32606 16.629H6.16406V16.349L6.27706 16.304C6.79194 16.1984 7.24539 15.8963 7.54114 15.4618C7.83689 15.0273 7.95165 14.4947 7.86106 13.977C7.69892 13.9649 7.54196 13.9145 7.40306 13.83L7.34106 13.791L7.33006 13.72L7.31606 13.615L7.30406 13.521L7.25806 13.221L7.53106 13.353C7.62277 13.4119 7.72643 13.4496 7.83454 13.4635C7.94265 13.4773 8.05248 13.4669 8.15606 13.433C8.22006 13.388 8.24406 13.29 8.22706 13.142L8.21206 13.006L8.34406 12.97C8.38325 12.9602 8.42299 12.9529 8.46306 12.948C8.48997 12.9448 8.51668 12.9401 8.54306 12.934L8.75506 12.876L8.74506 13.095C8.72406 13.551 8.62406 13.666 8.38406 13.837C8.44655 14.3231 8.39555 14.817 8.23506 15.2801C8.07457 15.7432 7.80896 16.1628 7.45906 16.506C7.45927 16.5912 7.47104 16.6759 7.49406 16.758L7.63206 17.391ZM6.93206 16.383C7.00477 16.4062 7.07508 16.4364 7.14206 16.473C7.14507 16.4389 7.15212 16.4054 7.16306 16.373L7.17406 16.341L7.19706 16.316C7.2824 16.2246 7.3614 16.133 7.43406 16.041C7.28043 16.1739 7.11198 16.2886 6.93206 16.383Z" fill="#373435"/>
<path d="M22.1571 23.213C22.1321 22.836 22.0861 22.505 22.0751 22.127C22.0501 21.261 21.3921 21.072 21.3561 21.938C21.3361 22.392 21.3561 22.82 21.3561 23.248C21.623 23.2846 21.8943 23.2727 22.1571 23.213Z" fill="#8093D0"/>
<path d="M21.7389 23.32C21.6389 23.32 21.5449 23.314 21.4499 23.308L21.2999 23.3V22.825C21.2999 22.539 21.2909 22.243 21.2999 21.938C21.3189 21.485 21.4999 21.324 21.6609 21.324C21.8739 21.324 22.1079 21.607 22.1239 22.124C22.1299 22.355 22.1499 22.566 22.1699 22.789C22.1829 22.925 22.1949 23.063 22.2049 23.207V23.25L22.1639 23.262C22.0257 23.3013 21.8826 23.3208 21.7389 23.32ZM21.4099 23.2H21.4579C21.6724 23.2252 21.8896 23.2154 22.1009 23.171C22.0919 23.043 22.0799 22.92 22.0689 22.799C22.0479 22.574 22.0289 22.362 22.0219 22.127C22.0089 21.696 21.8219 21.427 21.6649 21.427C21.5569 21.427 21.4259 21.561 21.4099 21.939C21.3959 22.239 21.4009 22.539 21.4099 22.82C21.4079 22.948 21.4099 23.073 21.4099 23.2Z" fill="#373435"/>
<path d="M21.368 23.257C21.2954 22.822 21.2683 22.3806 21.287 21.94C21.343 21.14 20.587 20.297 20.536 21.782C20.5175 22.216 20.5346 22.6508 20.587 23.082C20.8424 23.1605 21.1036 23.219 21.368 23.257Z" fill="#8093D0"/>
<path d="M21.429 23.321L21.36 23.31C21.0925 23.2725 20.8283 23.214 20.57 23.135L20.538 23.124V23.091C20.4851 22.6565 20.468 22.2183 20.487 21.781C20.503 21.302 20.587 21.018 20.75 20.936C20.7872 20.9174 20.8289 20.9097 20.8703 20.9138C20.9117 20.9178 20.9511 20.9335 20.984 20.959C21.1148 21.0851 21.2153 21.2393 21.2778 21.4099C21.3404 21.5806 21.3633 21.7632 21.345 21.944C21.3224 22.3302 21.3409 22.7177 21.4 23.1L21.429 23.321ZM20.635 23.044C20.855 23.1093 21.0791 23.1594 21.306 23.194L21.296 23.111C21.2342 22.7229 21.2131 22.3294 21.233 21.937C21.2499 21.7749 21.2307 21.611 21.1765 21.4573C21.1224 21.3035 21.0348 21.1637 20.92 21.048C20.9028 21.0334 20.8819 21.0239 20.8596 21.0207C20.8373 21.0175 20.8145 21.0207 20.794 21.03C20.739 21.058 20.609 21.189 20.588 21.784C20.5701 22.2046 20.5858 22.6259 20.635 23.044Z" fill="#373435"/>
<path d="M20.5879 23.15L20.4809 21.45C20.4039 20.181 19.8939 20.329 19.8529 21.374C19.8329 21.868 19.8729 22.138 19.8269 22.633C20.0669 22.796 20.3169 23.117 20.5879 23.143V23.15Z" fill="#8093D0"/>
<path d="M20.583 23.2C20.369 23.1477 20.1757 23.0324 20.028 22.869C19.9551 22.8018 19.8783 22.739 19.798 22.681L19.772 22.663V22.632C19.7929 22.3926 19.7999 22.1522 19.793 21.912V21.376C19.814 20.843 19.955 20.497 20.152 20.495C20.352 20.495 20.49 20.852 20.526 21.451L20.633 23.151H20.579L20.583 23.2ZM19.883 22.611C19.955 22.663 20.027 22.727 20.098 22.789C20.2203 22.9153 20.3674 23.015 20.53 23.082L20.43 21.458C20.392 20.829 20.249 20.602 20.162 20.602C20.072 20.602 19.929 20.851 19.909 21.381C19.9 21.581 19.903 21.752 19.909 21.912C19.9129 22.1446 19.9042 22.3773 19.883 22.609V22.611Z" fill="#373435"/>
<path d="M11.8649 24.028C11.8785 23.6299 11.8581 23.2315 11.8039 22.837C11.5899 21.917 11.3199 21.804 11.0039 22.484V24.012C11.2897 24.0511 11.5793 24.0544 11.8659 24.022L11.8649 24.028Z" fill="#8093D0"/>
<path d="M11.542 24.1C11.376 24.1 11.21 24.085 11.047 24.07L10.947 24.061V22.461C11.1 22.132 11.247 21.979 11.395 21.995C11.577 22.014 11.721 22.277 11.848 22.824L11.858 22.911C11.9073 23.2815 11.925 23.6555 11.911 24.029H11.859L11.866 24.075C11.7588 24.0918 11.6505 24.1002 11.542 24.1ZM11.056 23.964C11.3071 23.9962 11.561 24.0006 11.813 23.977C11.823 23.6252 11.8049 23.273 11.759 22.924L11.75 22.843C11.604 22.216 11.462 22.109 11.391 22.102C11.336 22.102 11.223 22.141 11.056 22.497V23.964Z" fill="#373435"/>
<path d="M10.2999 23.776C10.3049 23.19 10.3099 22.802 10.3099 22.216C10.5239 21.354 10.7429 21.441 10.9569 22.476C10.9619 23.032 10.9669 23.394 10.9669 23.949C10.7329 23.9398 10.5034 23.8809 10.2939 23.776H10.2999Z" fill="#8093D0"/>
<path d="M11.0171 24.0089L10.9271 23.9989C10.696 23.9878 10.47 23.9274 10.2641 23.8219L10.0891 23.7219H10.2431V23.4219C10.2431 23.0119 10.2501 22.6729 10.2501 22.2109V22.1979C10.3581 21.7639 10.4641 21.5699 10.5951 21.5699C10.6951 21.5699 10.8361 21.6749 10.9951 22.4599V22.8059C10.9951 23.1909 11.0021 23.5059 11.0021 23.9449L11.0171 24.0089ZM10.3501 23.7469C10.5263 23.8298 10.7167 23.878 10.9111 23.8889C10.9111 23.4829 10.9111 23.1779 10.9041 22.8109V22.4759C10.7471 21.7229 10.6271 21.6819 10.6041 21.6819C10.5811 21.6819 10.4951 21.6939 10.3631 22.2219C10.3631 22.6809 10.3631 23.0219 10.3561 23.4279L10.3501 23.7469Z" fill="#373435"/>
<path d="M9.49997 22.623C9.53097 22.133 9.63297 21.638 9.66297 21.148C9.46297 20.178 9.24497 20.005 9.01597 20.638C9.00597 21.266 9.00097 21.899 8.99097 22.527C9.14226 22.6235 9.32444 22.6593 9.50097 22.627L9.49997 22.623Z" fill="#8093D0"/>
<path d="M9.37292 22.7C9.2508 22.6937 9.13175 22.6595 9.02492 22.6L8.94092 22.562V22.527C8.94625 22.213 8.95059 21.8983 8.95392 21.583C8.95725 21.2677 8.96158 20.9527 8.96692 20.638V20.621C9.06692 20.334 9.17292 20.205 9.29292 20.213C9.41292 20.221 9.55192 20.334 9.71692 21.139V21.153C9.70192 21.4 9.66792 21.653 9.63492 21.894C9.60192 22.135 9.56892 22.384 9.55392 22.626V22.672L9.51192 22.681C9.46637 22.6921 9.41978 22.6985 9.37292 22.7ZM9.04892 22.5L9.06892 22.509C9.18466 22.5781 9.32005 22.607 9.45392 22.591C9.46992 22.356 9.50192 22.117 9.53392 21.886C9.56592 21.655 9.59892 21.4 9.61492 21.159C9.45792 20.396 9.32592 20.328 9.28892 20.325C9.26892 20.325 9.18892 20.342 9.07392 20.655C9.06859 20.9657 9.06425 21.2773 9.06092 21.59C9.05758 21.9027 9.05358 22.2033 9.04892 22.492V22.5Z" fill="#373435"/>
<path d="M19.0209 22.468C19.0619 21.947 19.0059 21.513 19.0209 21.003C19.0359 20.385 19.6469 20.564 19.6729 21.131C19.6989 21.698 19.7289 21.989 19.7599 22.555C19.5123 22.5969 19.2579 22.5667 19.0269 22.468H19.0209Z" fill="#8093D0"/>
<path d="M19.463 22.6181C19.3066 22.6235 19.1514 22.5891 19.012 22.5181H18.968V22.4611C18.9859 22.1827 18.9879 21.9036 18.974 21.6251C18.968 21.4251 18.961 21.2181 18.968 20.9991C18.976 20.6771 19.135 20.5611 19.281 20.5601C19.481 20.5601 19.708 20.7751 19.723 21.1261C19.738 21.4151 19.753 21.6261 19.767 21.8471C19.781 22.0681 19.795 22.2701 19.81 22.5471V22.6011L19.655 22.6071C19.5913 22.6147 19.5272 22.6184 19.463 22.6181ZM19.076 22.4341C19.259 22.5097 19.4591 22.5346 19.655 22.5061H19.703C19.6909 22.29 19.6776 22.074 19.663 21.8581C19.649 21.6411 19.635 21.4251 19.619 21.1351C19.603 20.8451 19.436 20.6701 19.283 20.6701C19.158 20.6701 19.083 20.7971 19.075 21.0061C19.067 21.2151 19.075 21.4271 19.081 21.6261C19.0933 21.8953 19.0917 22.165 19.076 22.4341Z" fill="#373435"/>
<path d="M18.989 22.487C18.974 22.105 18.979 21.646 18.964 21.264C19 20.739 18.638 19.964 18.496 20.826C18.4509 21.1452 18.4239 21.4667 18.415 21.789C18.5798 22.0422 18.7724 22.2763 18.989 22.487Z" fill="#B9C5EA"/>
<path d="M19.046 22.595L18.957 22.531C18.7811 22.3758 18.6273 22.1971 18.5 22C18.4585 21.9412 18.4158 21.8831 18.372 21.826L18.359 21.81V21.79C18.366 21.69 18.371 21.59 18.375 21.51C18.3826 21.2795 18.4046 21.0497 18.441 20.822C18.459 20.71 18.515 20.37 18.694 20.392C18.894 20.416 19.037 20.95 19.015 21.272C19.023 21.458 19.025 21.672 19.028 21.879C19.031 22.086 19.033 22.299 19.041 22.489L19.046 22.595ZM18.468 21.773C18.503 21.818 18.543 21.873 18.587 21.935C18.6907 22.088 18.806 22.2328 18.932 22.368C18.932 22.21 18.925 22.041 18.923 21.877C18.923 21.671 18.918 21.457 18.91 21.267C18.935 20.895 18.77 20.504 18.683 20.494C18.664 20.488 18.595 20.548 18.547 20.835C18.5112 21.0587 18.4895 21.2845 18.482 21.511L18.468 21.772V21.773ZM14.443 15.459C14.703 14.219 14.958 12.979 15.218 11.734C15.259 11.443 15.335 11.183 15.641 11.157H16.013C16.237 11.157 16.365 11.29 16.385 11.557L16.309 12.108C16.319 12.333 16.457 12.46 16.732 12.481C17.104 12.496 17.482 12.517 17.854 12.532C18.415 12.568 18.792 12.808 18.754 13.507L18.402 15.354C18.3957 15.4967 18.3473 15.6343 18.2629 15.7496C18.1786 15.8649 18.0621 15.9527 17.928 16.002C17.76 15.992 17.571 16.012 17.403 16.002C17.112 16.017 16.944 15.91 17.051 15.527C17.158 15.042 17.291 14.435 17.403 13.95C17.444 13.373 17.23 13.343 17.003 13.302C16.809 13.276 16.621 13.302 16.427 13.276C16.141 13.317 16.034 13.592 15.953 13.899C15.831 14.414 15.703 14.93 15.581 15.45C15.525 15.731 15.464 15.914 15.255 16.001H14.633C14.3984 15.9496 14.3317 15.766 14.433 15.45L14.443 15.459Z" fill="#373435"/>
<path d="M17.509 16.11H17.4C17.3249 16.1226 17.2479 16.1168 17.1755 16.0929C17.1032 16.069 17.0378 16.0278 16.985 15.973C16.9407 15.9032 16.9141 15.8237 16.9073 15.7413C16.9005 15.6589 16.9138 15.5761 16.946 15.5L17.007 15.222C17.1 14.8 17.207 14.329 17.295 13.936C17.326 13.471 17.201 13.448 16.995 13.41C16.809 13.385 16.63 13.41 16.43 13.386C16.23 13.422 16.139 13.621 16.057 13.928L15.891 14.617L15.685 15.477C15.617 15.765 15.562 15.991 15.296 16.102L15.276 16.11H14.61C14.5534 16.1007 14.4995 16.0794 14.4519 16.0475C14.4043 16.0156 14.3641 15.9738 14.334 15.925C14.2991 15.8463 14.281 15.7611 14.281 15.675C14.281 15.5888 14.2991 15.5037 14.334 15.425L14.367 15.325L14.767 13.386L15.112 11.725C15.14 11.525 15.199 11.1 15.631 11.064H16.012C16.176 11.064 16.457 11.128 16.49 11.564V11.575L16.413 12.127C16.42 12.24 16.467 12.369 16.737 12.389L17.298 12.414L17.855 12.439C17.9974 12.4256 18.1409 12.4454 18.2743 12.4967C18.4078 12.548 18.5276 12.6294 18.6244 12.7346C18.7212 12.8399 18.7924 12.966 18.8324 13.1033C18.8724 13.2406 18.8801 13.3852 18.855 13.526V13.54L18.503 15.388C18.4932 15.549 18.4365 15.7036 18.3401 15.8329C18.2436 15.9623 18.1115 16.0606 17.96 16.116L17.94 16.123H17.665C17.614 16.108 17.561 16.11 17.509 16.11ZM17.401 15.894H17.91C18.0209 15.8479 18.1162 15.7709 18.1845 15.6721C18.2528 15.5733 18.2911 15.457 18.295 15.337L18.646 13.493C18.677 12.931 18.438 12.675 17.846 12.638L17.29 12.613L16.727 12.587C16.287 12.554 16.209 12.276 16.202 12.113V12.1L16.278 11.551C16.255 11.295 16.124 11.262 16.013 11.262H15.641C15.457 11.278 15.371 11.405 15.323 11.747L14.976 13.415C14.8334 14.1036 14.69 14.7916 14.546 15.479L14.506 15.672L14.494 15.66C14.4865 15.7115 14.4945 15.7641 14.517 15.811C14.5313 15.8324 14.5499 15.8507 14.5716 15.8646C14.5932 15.8786 14.6176 15.8879 14.643 15.892H15.23C15.373 15.824 15.422 15.692 15.474 15.426L15.681 14.561L15.847 13.87C15.908 13.642 16.019 13.222 16.41 13.17H16.439C16.621 13.194 16.811 13.17 17.015 13.196H17.029C17.315 13.248 17.548 13.341 17.505 13.955V13.972C17.414 14.366 17.305 14.84 17.216 15.264L17.153 15.548C17.113 15.691 17.113 15.789 17.153 15.837C17.193 15.885 17.31 15.898 17.396 15.894H17.401Z" fill="#FEFEFE"/>
<path d="M9.62395 16.8941C9.87895 15.5721 10.139 14.2501 10.395 12.9331C10.3916 12.8732 10.401 12.8134 10.4223 12.7574C10.4437 12.7014 10.4767 12.6505 10.5191 12.6082C10.5614 12.5658 10.6123 12.5328 10.6683 12.5114C10.7242 12.4901 10.7841 12.4807 10.844 12.4841H13.192C13.4157 12.4775 13.637 12.532 13.832 12.6417C14.0271 12.7515 14.1885 12.9124 14.299 13.1071C14.4561 13.3917 14.5221 13.7177 14.488 14.0411C14.4377 14.5962 14.1917 15.1155 13.794 15.5061C13.4682 15.7811 13.0692 15.9549 12.646 16.0061C12.246 16.0161 11.846 16.0211 11.446 16.0321C11.216 16.0121 10.987 16.0731 10.931 16.2571C10.86 16.5071 10.809 16.7571 10.737 17.0021C10.712 17.0572 10.6754 17.1064 10.6296 17.1461C10.5839 17.1858 10.5301 17.2151 10.472 17.2321C10.242 17.2371 10.008 17.2371 9.77795 17.2421C9.53195 17.2461 9.58295 17.1001 9.62395 16.8941ZM11.262 14.6281C11.328 14.2811 11.41 13.8881 11.471 13.5821C11.5035 13.4904 11.5648 13.4117 11.6457 13.3576C11.7266 13.3036 11.8228 13.2771 11.92 13.2821C12.162 13.2649 12.4051 13.2962 12.635 13.3741C12.7356 13.4147 12.8264 13.4762 12.9015 13.5546C12.9765 13.633 13.0341 13.7264 13.0703 13.8287C13.1065 13.931 13.1206 14.0399 13.1115 14.148C13.1025 14.2562 13.0706 14.3612 13.018 14.4561C12.929 14.6231 12.808 14.7709 12.6618 14.891C12.5156 15.0112 12.3471 15.1012 12.166 15.1561C11.9996 15.1995 11.8276 15.2167 11.656 15.2071C11.217 15.1611 11.181 15.0441 11.256 14.6251L11.262 14.6281Z" fill="#373435"/>
<path d="M9.76602 17.3481C9.72344 17.3524 9.68044 17.3469 9.64025 17.3322C9.60007 17.3175 9.56375 17.2938 9.53402 17.2631C9.45802 17.1721 9.48402 17.0491 9.51102 16.9191L9.52002 16.8741C9.66069 16.1461 9.80235 15.4181 9.94502 14.6901L10.288 12.9281C10.2837 12.8591 10.2938 12.79 10.3175 12.7251C10.3413 12.6602 10.3782 12.601 10.426 12.5511C10.4804 12.4941 10.5461 12.4492 10.619 12.4194C10.6919 12.3895 10.7703 12.3755 10.849 12.3781H13.192C13.4353 12.3706 13.6758 12.4302 13.8875 12.5503C14.0991 12.6704 14.2737 12.8464 14.392 13.0591C14.5579 13.361 14.6276 13.7064 14.592 14.0491C14.5399 14.6294 14.2833 15.1723 13.868 15.5811L13.856 15.5921C13.5153 15.8788 13.0982 16.0599 12.656 16.1131C12.45 16.1191 12.249 16.1221 12.049 16.1261L11.449 16.1391H11.437C11.276 16.1251 11.073 16.1551 11.037 16.2891C11.001 16.4231 10.972 16.5331 10.937 16.6561C10.902 16.7791 10.875 16.9061 10.837 17.0331C10.8088 17.1044 10.7648 17.1684 10.7084 17.2204C10.6519 17.2723 10.5845 17.3109 10.511 17.3331L10.492 17.3411H10.472L10.127 17.3461L9.77802 17.3511L9.76602 17.3481ZM9.69902 17.1281C9.72377 17.1347 9.74947 17.1371 9.77502 17.1351L10.127 17.1301H10.449C10.557 17.0821 10.619 17.0301 10.636 16.9761C10.671 16.8531 10.701 16.7311 10.736 16.6081C10.771 16.4851 10.798 16.3581 10.836 16.2321C10.901 16.0181 11.136 15.9031 11.457 15.9321L12.051 15.9191L12.651 15.9061C13.0492 15.8554 13.4242 15.6908 13.731 15.4321C14.1079 15.0602 14.3413 14.5672 14.39 14.0401C14.4226 13.7357 14.3604 13.4288 14.212 13.1611C14.1083 12.9846 13.9592 12.8391 13.7801 12.7399C13.601 12.6407 13.3986 12.5914 13.194 12.5971H10.844C10.7951 12.5951 10.7463 12.6036 10.7009 12.6221C10.6556 12.6405 10.6147 12.6685 10.581 12.7041C10.5521 12.7337 10.5299 12.7692 10.5161 12.8082C10.5023 12.8473 10.4971 12.8888 10.501 12.9301V12.9601L10.155 14.7371L9.73002 16.9211L9.72002 16.9681C9.70479 17.022 9.69804 17.078 9.70002 17.1341L9.69902 17.1281ZM11.751 15.3161H11.645C11.5606 15.3181 11.4767 15.3033 11.398 15.2726C11.3194 15.2419 11.2477 15.1958 11.187 15.1371C11.098 15.0181 11.106 14.8601 11.152 14.6091L11.188 14.4091L11.195 14.4161C11.23 14.2371 11.268 14.0531 11.303 13.8801L11.376 13.5371C11.4175 13.4259 11.4935 13.331 11.5928 13.2663C11.6921 13.2015 11.8096 13.1702 11.928 13.1771C12.1805 13.1601 12.4339 13.1942 12.673 13.2771C12.7786 13.3149 12.8751 13.3744 12.9564 13.4517C13.0377 13.5291 13.1019 13.6225 13.145 13.7261C13.1926 13.8508 13.2144 13.9838 13.2093 14.1171C13.2041 14.2505 13.1721 14.3814 13.115 14.5021L13.108 14.5151C13.0126 14.693 12.883 14.8504 12.7267 14.9783C12.5704 15.1061 12.3904 15.2019 12.197 15.2601C12.0505 15.295 11.9006 15.3137 11.75 15.3161H11.751ZM11.338 14.8041C11.3224 14.8712 11.3298 14.9416 11.359 15.0041C11.394 15.0501 11.492 15.0801 11.667 15.0991C11.8273 15.107 11.9878 15.0905 12.143 15.0501C12.3092 14.9992 12.4637 14.916 12.5977 14.8053C12.7318 14.6946 12.8426 14.5586 12.924 14.4051C12.9679 14.3117 12.9927 14.2106 12.997 14.1076C13.0013 14.0046 12.985 13.9017 12.949 13.8051C12.9166 13.7286 12.8687 13.6597 12.8083 13.6027C12.7478 13.5458 12.6762 13.5019 12.598 13.4741C12.3813 13.401 12.1521 13.3721 11.924 13.3891C11.8484 13.3828 11.7728 13.4021 11.7094 13.4438C11.646 13.4855 11.5983 13.5472 11.574 13.6191L11.513 13.9191C11.465 14.1551 11.413 14.4121 11.368 14.6481L11.338 14.8041Z" fill="#FEFEFE"/>
<path d="M18.5451 16.8941C18.8001 15.5721 19.0601 14.2501 19.3161 12.9331C19.3128 12.8732 19.3221 12.8134 19.3435 12.7574C19.3649 12.7014 19.3979 12.6505 19.4402 12.6082C19.4826 12.5658 19.5334 12.5328 19.5894 12.5114C19.6454 12.4901 19.7053 12.4807 19.7651 12.4841H22.1131C22.3368 12.4775 22.5581 12.532 22.7532 12.6417C22.9482 12.7515 23.1097 12.9124 23.2201 13.1071C23.3773 13.3917 23.4433 13.7177 23.4091 14.0411C23.3589 14.5962 23.1129 15.1155 22.7151 15.5061C22.3894 15.7811 21.9904 15.9549 21.5671 16.0061C21.1671 16.0161 20.7671 16.0211 20.3671 16.0321C20.1371 16.0121 19.9081 16.0731 19.8521 16.2571C19.7811 16.5071 19.7301 16.7571 19.6581 17.0021C19.6331 17.0572 19.5965 17.1064 19.5508 17.1461C19.505 17.1858 19.4513 17.2151 19.3931 17.2321C19.1631 17.2371 18.9291 17.2371 18.6991 17.2421C18.4531 17.2461 18.5001 17.1001 18.5451 16.8941ZM20.1831 14.6281C20.2491 14.2811 20.3311 13.8881 20.3921 13.5821C20.4247 13.4904 20.486 13.4117 20.5669 13.3576C20.6478 13.3036 20.744 13.2771 20.8411 13.2821C21.0832 13.2649 21.3263 13.2962 21.5561 13.3741C21.6567 13.4147 21.7476 13.4762 21.8226 13.5546C21.8977 13.633 21.9552 13.7264 21.9914 13.8287C22.0277 13.931 22.0417 14.0399 22.0327 14.148C22.0237 14.2562 21.9918 14.3612 21.9391 14.4561C21.8502 14.6231 21.7291 14.7709 21.5829 14.891C21.4367 15.0112 21.2682 15.1012 21.0871 15.1561C20.9208 15.1995 20.7487 15.2167 20.5771 15.2071C20.1381 15.1611 20.1021 15.0441 20.1771 14.6251L20.1831 14.6281Z" fill="#373435"/>
<path d="M18.6869 17.3481C18.6443 17.3523 18.6014 17.3468 18.5612 17.3321C18.521 17.3174 18.4847 17.2938 18.4549 17.2631C18.3789 17.1721 18.4049 17.0491 18.4319 16.9191L18.4409 16.8741C18.5809 16.1481 18.7219 15.4227 18.8639 14.6981L19.2089 12.9281C19.2046 12.8591 19.2147 12.79 19.2384 12.7251C19.2622 12.6602 19.2991 12.601 19.3469 12.5511C19.4013 12.4941 19.467 12.4492 19.5399 12.4194C19.6128 12.3895 19.6912 12.3755 19.7699 12.3781H22.1129C22.3562 12.3706 22.5967 12.4302 22.8084 12.5503C23.02 12.6704 23.1946 12.8464 23.3129 13.0591C23.4787 13.361 23.5485 13.7064 23.5129 14.0491C23.4607 14.6294 23.2041 15.1723 22.7889 15.5811L22.7769 15.5921C22.4362 15.8788 22.0191 16.0599 21.5769 16.1131C21.3709 16.1191 21.1699 16.1221 20.9699 16.1261L20.3699 16.1391H20.3579C20.1959 16.1251 19.9939 16.1551 19.9579 16.2891C19.9219 16.4231 19.8929 16.5331 19.8579 16.6551C19.8229 16.7771 19.7959 16.9061 19.7579 17.0321C19.7297 17.1034 19.6857 17.1674 19.6293 17.2194C19.5728 17.2713 19.5054 17.3099 19.4319 17.3321L19.4129 17.3401H19.3929L19.0479 17.3451L18.6989 17.3501L18.6869 17.3481ZM18.6199 17.1281C18.6447 17.1345 18.6704 17.1368 18.6959 17.1351L19.0479 17.1301H19.3699C19.4779 17.0821 19.5399 17.0301 19.5569 16.9761C19.5919 16.8531 19.6229 16.7301 19.6569 16.6081C19.6909 16.4861 19.7189 16.3591 19.7569 16.2331C19.8219 16.0191 20.0569 15.9041 20.3779 15.9331L20.9719 15.9201L21.5719 15.9071C21.9701 15.8564 22.3451 15.6918 22.6519 15.4331C23.0288 15.0612 23.2622 14.5682 23.3109 14.0411C23.3435 13.7367 23.2814 13.4297 23.1329 13.1621C23.0292 12.9856 22.8801 12.8401 22.701 12.7409C22.5219 12.6417 22.3195 12.5924 22.1149 12.5981H19.7649C19.716 12.596 19.6671 12.6044 19.6218 12.6229C19.5764 12.6413 19.5355 12.6694 19.5019 12.7051C19.473 12.7347 19.4508 12.7702 19.437 12.8092C19.4232 12.8483 19.418 12.8898 19.4219 12.9311V12.9611L19.0749 14.7461L18.6519 16.9221L18.6419 16.9691C18.6267 17.023 18.6199 17.079 18.6219 17.1351L18.6199 17.1281ZM20.6719 15.3161H20.5659C20.4815 15.3181 20.3976 15.3033 20.3189 15.2726C20.2403 15.2419 20.1686 15.1958 20.1079 15.1371C20.0189 15.0181 20.0269 14.8601 20.0729 14.6091L20.1089 14.4091L20.1159 14.4161C20.1509 14.2361 20.1889 14.0511 20.2239 13.8771L20.2969 13.5361C20.338 13.4247 20.4139 13.3295 20.5133 13.2646C20.6127 13.1998 20.7304 13.1687 20.8489 13.1761C21.1014 13.1594 21.3547 13.1934 21.5939 13.2761C21.6995 13.3139 21.796 13.3734 21.8773 13.4507C21.9586 13.5281 22.0228 13.6215 22.0659 13.7251C22.1135 13.8498 22.1353 13.9828 22.1302 14.1161C22.125 14.2495 22.093 14.3804 22.0359 14.5011L22.0289 14.5141C21.9335 14.692 21.8039 14.8494 21.6476 14.9773C21.4913 15.1051 21.3113 15.2009 21.1179 15.2591C20.9718 15.2942 20.8222 15.3133 20.6719 15.3161ZM20.2579 14.8051C20.2423 14.8722 20.2497 14.9426 20.2789 15.0051C20.3139 15.0511 20.4119 15.0811 20.5869 15.1001C20.7472 15.108 20.9077 15.0915 21.0629 15.0511C21.2291 15.0002 21.3836 14.917 21.5176 14.8063C21.6517 14.6956 21.7625 14.5596 21.8439 14.4061C21.8878 14.3127 21.9126 14.2116 21.9169 14.1086C21.9212 14.0056 21.9049 13.9027 21.8689 13.8061C21.8365 13.7296 21.7886 13.6607 21.7282 13.6037C21.6677 13.5468 21.5961 13.5029 21.5179 13.4751C21.3012 13.4019 21.072 13.373 20.8439 13.3901C20.7683 13.384 20.6928 13.4033 20.6294 13.445C20.5661 13.4867 20.5184 13.5483 20.4939 13.6201L20.4329 13.9201C20.3849 14.1571 20.3329 14.4151 20.2879 14.6511L20.2579 14.8051Z" fill="#FEFEFE"/>
<path d="M3.42512 22.906C3.30554 22.7912 3.20435 22.6586 3.12512 22.513C3.0017 22.2883 2.94189 22.0342 2.95212 21.778C2.69212 17.345 2.92112 13.468 4.33412 10.3C4.50712 9.91202 4.53412 9.79502 4.89512 9.61602C5.99798 9.21165 7.18101 9.07457 8.34712 9.21602C8.38312 9.11602 8.45412 9.01602 8.42312 8.91602C7.36783 8.83154 6.30582 8.91594 5.27712 9.16602C4.57712 9.27802 3.89512 9.40102 3.72712 10.513C2.31512 14.252 2.41712 17.793 2.56412 21.272C2.56306 21.523 2.60084 21.7726 2.67612 22.012C2.95112 22.889 3.21712 22.859 3.42612 22.905L3.42512 22.906ZM8.84812 22.351C8.84812 21.428 8.77212 20.505 8.77212 19.578C8.73474 19.0491 8.61984 18.5285 8.43112 18.033C8.22658 17.6726 7.99244 17.3297 7.73112 17.008C8.52565 18.518 8.77299 20.2564 8.43112 21.928C8.57312 22.07 8.70012 22.213 8.84812 22.351Z" fill="#EBEFFF"/>
<path d="M8.92402 22.5341L8.85302 22.5071C8.58621 22.3924 8.35736 22.2045 8.19302 21.9651L8.12402 21.8781H8.18902C8.20402 21.5471 8.19802 21.2441 8.18902 20.9501C8.18302 20.6401 8.17602 20.3201 8.19402 19.9681V19.9091L8.25302 19.9181C8.41615 19.9339 8.57028 20.0002 8.69395 20.1077C8.81763 20.2153 8.90469 20.3587 8.94302 20.5181V20.5341L8.93002 21.4891L8.91702 22.4591L8.92402 22.5341ZM8.29302 21.9201C8.43046 22.1115 8.61054 22.2683 8.81902 22.3781C8.81902 22.0621 8.82702 21.7781 8.83102 21.4871C8.83102 21.1871 8.83902 20.8801 8.84402 20.5401C8.81297 20.4118 8.74482 20.2954 8.64808 20.2056C8.55133 20.1158 8.43028 20.0565 8.30002 20.0351C8.28602 20.3591 8.29202 20.6581 8.30002 20.9481C8.30002 21.2551 8.31002 21.5721 8.29302 21.9201Z" fill="#373435"/>
<path d="M10.2521 23.657C10.0435 23.5747 9.86785 23.4261 9.7521 23.234C9.7161 21.586 9.6851 19.934 9.6521 18.285L9.9031 18.535C9.95929 18.8825 9.98506 19.2341 9.9801 19.586L10.0571 19.786C10.0557 21.0789 10.1208 22.3709 10.2521 23.657Z" fill="#EBEFFF"/>
<path d="M10.335 24.0231L10.265 24.0001C9.97411 23.8977 9.73336 23.6881 9.59196 23.4141L9.58496 23.4001V23.3801C9.58496 22.8311 9.59496 22.2631 9.59496 21.7071V21.6931L9.60196 21.6811C9.75296 21.4061 9.88296 21.2291 10.025 21.2571C10.136 21.2791 10.261 21.4081 10.345 22.1921C10.345 22.7751 10.335 23.3691 10.335 23.9501V24.0231ZM9.69196 23.3731C9.80999 23.5951 9.99907 23.7711 10.229 23.8731C10.229 23.3161 10.234 22.7491 10.239 22.1991C10.161 21.4701 10.049 21.3701 10.005 21.3611C9.96096 21.3521 9.87496 21.4081 9.70496 21.7201C9.69996 22.2701 9.69996 22.8311 9.69196 23.3741V23.3731Z" fill="#373435"/>
<path d="M8.50011 18.057C8.50319 17.9722 8.491 17.8875 8.46411 17.807C8.50511 17.817 8.54611 17.822 8.58611 17.833L9.23311 18.359C9.32321 18.3208 9.39493 18.2491 9.43311 18.159C9.47403 18.1584 9.51455 18.167 9.55163 18.1844C9.5887 18.2017 9.62135 18.2272 9.64711 18.259C9.65711 18.678 9.62711 19.091 9.63711 19.509C9.70427 19.5663 9.74774 19.6465 9.75911 19.734C10.027 19.7447 10.2941 19.7704 10.5591 19.811C10.5741 19.877 10.5951 19.918 10.6101 19.985C10.311 19.9515 10.0092 19.9515 9.71011 19.985V20.174C9.94466 20.162 10.1798 20.1791 10.4101 20.225L10.4351 20.363C10.1861 20.3332 9.93423 20.3365 9.68611 20.373C9.72211 21.402 9.72211 22.432 9.68611 23.461C9.60411 23.267 9.44711 23.078 9.36011 22.884C9.51539 21.5642 9.53583 20.232 9.42111 18.908C9.18386 18.5571 8.86864 18.2658 8.50011 18.057Z" fill="#373435"/>
<path d="M9.54392 23.5239C9.49961 23.4286 9.44778 23.337 9.38892 23.2499C9.32517 23.1541 9.26836 23.0539 9.21892 22.9499L9.19992 22.9089L9.20592 22.8639C9.3575 21.5693 9.37827 20.2627 9.26792 18.9639C9.04209 18.6502 8.75154 18.3887 8.41592 18.1969L8.32592 18.1389L8.34592 18.0329C8.34629 17.9945 8.3402 17.9563 8.32792 17.9199C8.32108 17.8938 8.31507 17.8675 8.30992 17.8409L8.26392 17.5959L8.50592 17.6559L8.55792 17.6669C8.58092 17.6669 8.60492 17.6759 8.62792 17.6819L8.66192 17.6909L9.24592 18.1649C9.26301 18.1491 9.27634 18.1296 9.28492 18.1079L9.32392 18.0079H9.43492C9.5018 18.0074 9.56786 18.0226 9.62779 18.0524C9.68771 18.0821 9.73982 18.1254 9.77992 18.1789L9.80692 18.2179V18.2659C9.81192 18.4789 9.80692 18.6929 9.80192 18.8989C9.80192 19.0819 9.79292 19.2709 9.79592 19.4569C9.83046 19.4965 9.8594 19.5405 9.88192 19.5879C10.0479 19.5949 10.2119 19.6169 10.3719 19.6369L10.5779 19.6619L10.6899 19.6749L10.7149 19.7849C10.7207 19.8093 10.7277 19.8333 10.7359 19.8569C10.7459 19.8879 10.7569 19.9199 10.7659 19.9569L10.8149 20.1689L10.5979 20.1519H10.5589L10.6319 20.5519L10.4209 20.5299C10.232 20.5083 10.0414 20.5052 9.85192 20.5209C9.88306 21.5054 9.88306 22.4905 9.85192 23.4749L9.54392 23.5239ZM9.52992 22.8599L9.54892 22.8959V22.6769C9.54425 22.7383 9.53792 22.7993 9.52992 22.8599ZM9.31492 18.4999C9.37818 18.5675 9.43665 18.6393 9.48992 18.7149V18.3689C9.4398 18.4226 9.38055 18.467 9.31492 18.4999Z" fill="#373435"/>
<path d="M9.12109 8.96401C9.58244 8.90341 10.0269 8.75072 10.4281 8.51501C11.2235 8.0696 12.1107 7.81299 13.0211 7.76501C12.6444 7.5949 12.2207 7.55959 11.8211 7.66501C10.8397 7.9032 9.91966 8.34585 9.12109 8.96401ZM14.1141 8.41001C16.3039 7.77963 18.64 7.88502 20.7641 8.71001C18.676 7.79237 16.3326 7.63423 14.1401 8.26301C14.1391 8.36501 14.1141 8.31401 14.1141 8.41001Z" fill="#EBEFFF"/>
<defs>
<linearGradient id="paint0_linear_804_282" x1="8.43906" y1="6.26144" x2="14.8148" y2="27.4936" gradientUnits="userSpaceOnUse">
<stop stop-color="#8A9FE0"/>
<stop offset="0.588" stop-color="#7182B8"/>
<stop offset="1" stop-color="#576490"/>
</linearGradient>
</defs>
</svg>
