<svg width="24" height="24" viewBox="0 0 24 24" fill="none" xmlns="http://www.w3.org/2000/svg">
<g clip-path="url(#clip0_804_162)">
<path d="M23.907 14.3714C23.7631 13.9488 23.3861 13.6544 22.8986 13.5838C22.6687 13.5505 22.4055 13.5647 22.0939 13.6269C21.5509 13.7356 21.1481 13.7769 20.8541 13.7849C21.9638 11.9681 22.8662 9.89631 23.3856 7.94604C24.2256 4.79249 23.7767 3.35586 23.2522 2.70604C21.8641 0.986038 19.8388 0.0620383 17.3955 0.0337656C16.0921 0.018311 14.9478 0.267856 14.3509 0.447311C13.7952 0.35222 13.1976 0.299129 12.5706 0.289311C11.3953 0.271129 10.3568 0.519584 9.46947 1.03022C8.97822 0.869129 8.18978 0.642038 7.27928 0.497129C5.13784 0.15622 3.4119 0.421857 2.14946 1.28667C0.620777 2.33377 -0.087879 4.15304 0.0431835 6.69395C0.0848085 7.50068 0.550184 9.95522 1.28293 12.283C1.70406 13.621 2.15312 14.7321 2.61765 15.5858C3.27643 16.7962 3.98134 17.509 4.77268 17.765C5.21621 17.9083 6.02209 18.0087 6.86968 17.3241C6.97712 17.4503 7.12047 17.5757 7.31068 17.6921C7.55228 17.8399 7.84768 17.9606 8.14272 18.0321C9.20593 18.2899 10.2018 18.2254 11.0515 17.8641C11.0567 18.0107 11.0608 18.1507 11.0642 18.2716C11.0698 18.4677 11.0754 18.6599 11.0828 18.8398C11.1332 20.0556 11.2185 21.0009 11.4712 21.6624C11.4851 21.6988 11.5037 21.7542 11.5234 21.813C11.6495 22.1874 11.8604 22.8141 12.3968 23.3049C12.9523 23.8134 13.6242 23.9693 14.2396 23.9693C14.5482 23.9693 14.8427 23.93 15.1009 23.8764C16.0216 23.685 17.0672 23.3936 17.8235 22.3492C18.5387 21.3619 18.8863 19.8749 18.9492 17.5319C18.9573 17.4657 18.9648 17.4024 18.9721 17.3421L18.9871 17.2183L19.1555 17.2327L19.1989 17.2355C20.1366 17.2769 21.2832 17.0841 21.9873 16.7669C22.5437 16.5166 24.3268 15.6038 23.907 14.3714Z" fill="black"/>
<path d="M22.3037 14.6111C19.5156 15.1688 19.3239 14.2535 19.3239 14.2535C22.2676 10.0178 23.4983 4.64112 22.4364 3.32521C19.5391 -0.264335 14.524 1.4333 14.4402 1.4773L14.4133 1.48203C13.8625 1.37112 13.246 1.30512 12.5531 1.29412C11.2916 1.27412 10.3346 1.61485 9.60845 2.14885C9.60845 2.14885 0.661889 -1.42515 1.07805 6.64376C1.16655 8.3603 3.6153 19.6322 6.53598 16.2276C7.60351 14.9826 8.63505 13.9299 8.63505 13.9299C9.1473 14.2599 9.76061 14.4283 10.4035 14.3678L10.4535 14.3268C10.438 14.4813 10.4451 14.6325 10.4735 14.8115C9.72105 15.6267 9.9422 15.7698 8.43808 16.07C6.91605 16.3742 7.81014 16.9157 8.39392 17.0573C9.10164 17.2288 10.7389 17.4719 11.8451 15.9702L11.8011 16.1416C12.0958 16.3706 12.3028 17.6309 12.2681 18.7736C12.2335 19.9161 12.2103 20.7006 12.4425 21.3133C12.6749 21.926 12.9064 23.3047 14.8838 22.8938C16.5359 22.5505 17.3921 21.6608 17.5113 20.1766C17.5958 19.1215 17.7871 19.2775 17.7991 18.3341L17.9526 17.8876C18.1295 16.4573 17.9807 15.9958 18.9985 16.2105L19.246 16.2316C19.9951 16.2646 20.9757 16.1147 21.5513 15.8553C22.7905 15.2977 23.5255 14.3665 22.3035 14.6111H22.3037Z" fill="#336791"/>
<path d="M10.1323 7.41133C9.881 7.37742 9.65347 7.40878 9.53835 7.49333C9.47366 7.54087 9.4536 7.59596 9.44816 7.63387C9.43372 7.73433 9.50628 7.84542 9.55091 7.90269C9.6771 8.06487 9.86141 8.17633 10.0438 8.20087C10.0703 8.20451 10.0966 8.20615 10.1228 8.20615C10.427 8.20615 10.7037 7.97642 10.728 7.80687C10.7585 7.59451 10.4406 7.45287 10.1323 7.41133ZM18.4558 7.41806C18.4318 7.2516 18.1263 7.20415 17.8364 7.24324C17.5469 7.28233 17.2663 7.40906 17.2897 7.57587C17.3084 7.7056 17.55 7.92706 17.836 7.92706C17.8602 7.92706 17.8845 7.92551 17.9091 7.92215C18.1 7.89651 18.24 7.77896 18.3066 7.71124C18.4078 7.60796 18.4665 7.49287 18.4558 7.41806Z" fill="white"/>
<path d="M23.2314 14.5477C23.1251 14.2359 22.7829 14.1357 22.2144 14.2495C20.5265 14.5873 19.922 14.3533 19.7235 14.2116C21.0355 12.2734 22.1149 9.93048 22.6972 7.74458C22.973 6.70912 23.1253 5.74749 23.1378 4.96367C23.1516 4.10339 23.0004 3.47121 22.6888 3.08503C21.4324 1.52821 19.5883 0.693121 17.3561 0.670212C15.8215 0.653485 14.525 1.0343 14.2736 1.14139C13.7443 1.01376 13.1673 0.935394 12.5391 0.925394C11.3871 0.907303 10.3912 1.17476 9.56681 1.71994C9.20868 1.59067 8.28318 1.28258 7.15134 1.10576C5.19459 0.800303 3.63965 1.03176 2.53003 1.79403C1.20599 2.70367 0.594744 4.32967 0.71315 6.62676C0.752994 7.39958 1.20712 9.77703 1.92374 12.0538C2.86706 15.0506 3.89249 16.747 4.97137 17.096C5.09765 17.1368 5.24324 17.1654 5.40384 17.1654C5.7974 17.1654 6.27993 16.9934 6.78196 16.4081C7.3943 15.6958 8.02772 15.0008 8.68143 14.3239C9.10556 14.5447 9.5715 14.6679 10.048 14.6803C10.049 14.6924 10.0502 14.7045 10.0513 14.7165C9.96928 14.8113 9.88895 14.9076 9.81037 15.0051C9.48018 15.4116 9.41146 15.4962 8.34862 15.7084C8.04628 15.7689 7.24331 15.9294 7.23149 16.4752C7.21874 17.0716 8.18071 17.322 8.29031 17.3486C8.67225 17.4413 9.04021 17.487 9.39112 17.487C10.2445 17.487 10.9956 17.215 11.5957 16.6888C11.5773 18.8148 11.6687 20.9097 11.9319 21.5479C12.1476 22.0705 12.6742 23.3475 14.3379 23.3474C14.5821 23.3474 14.8507 23.3198 15.1463 23.2584C16.8827 22.8975 17.6367 22.1533 17.9284 20.5127C18.0845 19.6358 18.3523 17.5421 18.4783 16.419C18.7442 16.4995 19.0865 16.5363 19.4565 16.5362C20.2282 16.5362 21.1188 16.3772 21.6772 16.1258C22.3046 15.8433 23.4367 15.15 23.2314 14.5477ZM19.0965 6.95858C19.0908 7.29012 19.0437 7.59112 18.9938 7.9053C18.9401 8.24321 18.8846 8.59258 18.8707 9.01667C18.8569 9.42939 18.91 9.85849 18.9614 10.2735C19.0653 11.1117 19.1719 11.9746 18.7593 12.826C18.6907 12.7083 18.6297 12.5866 18.5765 12.4616C18.5252 12.341 18.4138 12.1474 18.2596 11.8794C17.6597 10.8361 16.2548 8.39303 16.974 7.39612C17.1882 7.09939 17.7319 6.7943 19.0965 6.95858ZM17.4424 1.34158C19.4424 1.38439 21.0246 2.10994 22.1447 3.49794C23.0038 4.56258 22.0578 9.40685 19.3191 13.586C19.2915 13.5521 19.2638 13.5182 19.236 13.4845L19.2013 13.4425C19.909 12.3091 19.7707 11.1878 19.6475 10.1936C19.5968 9.78557 19.549 9.40021 19.5612 9.03821C19.5738 8.65458 19.6261 8.32548 19.6767 8.0073C19.7389 7.61521 19.8022 7.20948 19.7847 6.73121C19.7977 6.68103 19.803 6.62176 19.7962 6.55139C19.7516 6.09276 19.2116 4.72012 18.111 3.47776C17.5089 2.79821 16.631 2.03776 15.4322 1.52485C15.9478 1.42121 16.6529 1.32458 17.4424 1.34158ZM6.25068 15.9798C5.69756 16.6247 5.31562 16.501 5.18999 16.4605C4.37156 16.1958 3.42187 14.5183 2.58459 11.8583C1.86009 9.55667 1.43671 7.24221 1.40315 6.59321C1.2974 4.54067 1.81049 3.11021 2.92828 2.34148C4.7474 1.09058 7.73821 1.8393 8.93999 2.21903C8.92274 2.23558 8.90475 2.25103 8.88768 2.26785C6.91556 4.19912 6.96234 7.49876 6.96721 7.70048C6.96703 7.7783 6.97378 7.88848 6.98296 8.04003C7.0169 8.59503 7.08009 9.62794 6.91134 10.7977C6.75459 11.8847 7.10015 12.9486 7.85924 13.7167C7.93715 13.7953 8.01903 13.8702 8.10459 13.941C7.76671 14.2919 7.03237 15.0679 6.25068 15.9798ZM8.35809 13.2531C7.74628 12.634 7.4684 11.7729 7.59562 10.8904C7.77374 9.65476 7.70803 8.57858 7.67268 8.00039C7.66771 7.91948 7.66331 7.84858 7.66078 7.79267C7.94887 7.54494 9.28396 6.8513 10.2361 7.06285C10.6705 7.1593 10.9353 7.44621 11.0453 7.93967C11.615 10.4945 11.1207 11.5593 10.7236 12.415C10.6417 12.5913 10.5644 12.7579 10.4984 12.9303L10.4472 13.0636C10.3177 13.4005 10.1971 13.7138 10.1224 14.0112C9.47193 14.0094 8.83921 13.7399 8.35809 13.253M8.45793 16.6985C8.26799 16.6525 8.09718 16.5726 7.99696 16.5063C8.08068 16.4681 8.22965 16.4161 8.48803 16.3645C9.73837 16.1149 9.93149 15.9388 10.3532 15.4196C10.4498 15.3005 10.5594 15.1656 10.7112 15.0012L10.7114 15.001C10.9374 14.7556 11.0408 14.7972 11.2283 14.8727C11.3803 14.9336 11.5283 15.1183 11.5883 15.3216C11.6167 15.4176 11.6486 15.5998 11.5443 15.7416C10.6634 16.9376 9.37978 16.9222 8.45793 16.6985ZM15.0016 22.6032C13.472 22.921 12.9304 22.1642 12.5735 21.299C12.3431 20.7405 12.2299 18.2218 12.3102 15.4402C12.3112 15.4032 12.3058 15.3675 12.2953 15.3338C12.2859 15.2674 12.2716 15.2017 12.2526 15.1373C12.1331 14.7326 11.842 14.394 11.4928 14.2537C11.3541 14.1979 11.0994 14.0957 10.7934 14.1716C10.8587 13.9108 10.9718 13.6164 11.0946 13.2976L11.146 13.1635C11.204 13.0123 11.2767 12.8557 11.3536 12.6898C11.7692 11.7946 12.3383 10.5683 11.7206 7.79803C11.4892 6.76039 10.7166 6.25367 9.54525 6.37139C8.84306 6.44185 8.20059 6.71658 7.88015 6.87412C7.81124 6.90794 7.74824 6.94067 7.68937 6.97248C7.77881 5.92703 8.11668 3.97321 9.38062 2.73703C10.1765 1.95885 11.2363 1.57448 12.5276 1.59521C15.072 1.63558 16.7036 2.90176 17.6244 3.95694C18.4179 4.86612 18.8476 5.78203 19.0191 6.27603C17.7295 6.14885 16.8525 6.39567 16.4079 7.01203C15.4407 8.35276 16.9371 10.9549 17.6562 12.2056C17.7881 12.4348 17.9019 12.6328 17.9377 12.717C18.1719 13.2674 18.4751 13.6348 18.6965 13.903C18.7643 13.9852 18.8302 14.0649 18.8802 14.1346C18.4897 14.2438 17.7881 14.496 17.8521 15.757C17.8005 16.3898 17.4338 19.3521 17.2476 20.3988C17.0017 21.7815 16.4769 22.2964 15.0016 22.6032ZM21.3863 15.5182C20.987 15.6979 20.3186 15.8328 19.6837 15.8618C18.9825 15.8936 18.6255 15.7856 18.5415 15.7191C18.5021 14.9333 18.8037 14.8512 19.1229 14.7643C19.1731 14.7507 19.222 14.7373 19.2693 14.7213C19.2986 14.7445 19.3308 14.7675 19.366 14.79C19.9297 15.1508 20.9349 15.1897 22.3542 14.9056L22.3698 14.9026C22.1783 15.0761 21.8508 15.309 21.3863 15.5182Z" fill="white"/>
</g>
<defs>
<clipPath id="clip0_804_162">
<rect width="24" height="24" fill="white"/>
</clipPath>
</defs>
</svg>
