<svg width="24" height="24" viewBox="0 0 24 24" fill="none" xmlns="http://www.w3.org/2000/svg">
<g clip-path="url(#clip0_804_408)">
<path d="M18.375 0H5.625C2.5184 0 0 2.5184 0 5.625V18.375C0 21.4816 2.5184 24 5.625 24H18.375C21.4816 24 24 21.4816 24 18.375V5.625C24 2.5184 21.4816 0 18.375 0Z" fill="#0073AA"/>
<path d="M3.95752 11.9994C3.95752 15.1827 5.80749 17.9337 8.49005 19.2374L4.6538 8.72649C4.19394 9.75629 3.95667 10.8716 3.95752 11.9994ZM17.4288 11.5936C17.4288 10.5997 17.0718 9.9114 16.7656 9.37561C16.3579 8.71318 15.9758 8.15218 15.9758 7.48974C15.9758 6.75043 16.5365 6.0623 17.3263 6.0623C17.362 6.0623 17.3957 6.06671 17.4305 6.06868C15.9997 4.75786 14.0935 3.95752 11.9997 3.95752C9.19018 3.95752 6.71827 5.39902 5.28033 7.58246C5.46896 7.58808 5.6468 7.59211 5.79783 7.59211C6.63905 7.59211 7.94115 7.48993 7.94115 7.48993C8.37465 7.46443 8.42583 8.10118 7.99271 8.15246C7.99271 8.15246 7.55705 8.20374 7.07227 8.22914L10.0008 16.9402L11.7608 11.6618L10.5078 8.22886C10.0748 8.20346 9.66455 8.15218 9.66455 8.15218C9.23115 8.12677 9.28196 7.46414 9.71536 7.48974C9.71536 7.48974 11.0434 7.59174 11.8336 7.59174C12.6748 7.59174 13.977 7.48974 13.977 7.48974C14.4108 7.46414 14.4617 8.10089 14.0285 8.15218C14.0285 8.15218 13.5919 8.20346 13.1081 8.22886L16.0144 16.8739L16.8166 14.1934C17.1643 13.081 17.4288 12.2821 17.4288 11.5936Z" fill="white"/>
<path d="M12.141 12.703L9.72803 19.7146C10.4657 19.9318 11.2308 20.0422 11.9999 20.0422C12.9095 20.0425 13.8125 19.8884 14.6704 19.5863C14.6481 19.5511 14.629 19.5141 14.6132 19.4755L12.141 12.703ZM19.0565 8.14111C19.0931 8.41521 19.1112 8.69146 19.1107 8.96799C19.1107 9.78408 18.9583 10.7015 18.4992 11.8486L16.0427 18.9511C18.4336 17.5568 20.0417 14.9666 20.0417 11.9997C20.0418 10.6014 19.6847 9.28655 19.0565 8.14111Z" fill="white"/>
<path d="M11.9998 2.625C6.83063 2.625 2.625 6.83034 2.625 11.9994C2.625 17.1692 6.83063 21.3743 11.9998 21.3743C17.1687 21.3743 21.375 17.1692 21.375 11.9994C21.3748 6.83034 17.1687 2.625 11.9998 2.625ZM11.9998 20.9447C7.06763 20.9447 3.05484 16.9318 3.05484 11.9994C3.05484 7.06734 7.06753 3.05484 11.9998 3.05484C16.9317 3.05484 20.9442 7.06734 20.9442 11.9994C20.9442 16.9318 16.9317 20.9447 11.9998 20.9447Z" fill="white"/>
</g>
<defs>
<clipPath id="clip0_804_408">
<rect width="24" height="24" fill="white"/>
</clipPath>
</defs>
</svg>
